<?xml version="1.0" encoding="utf-8"?>
<!-- Generator: Adobe Illustrator 19.0.0, SVG Export Plug-In . SVG Version: 6.00 Build 0)  -->
<svg version="1.1" id="Capa_1" xmlns="http://www.w3.org/2000/svg" xmlns:xlink="http://www.w3.org/1999/xlink" x="0px" y="0px"
	 viewBox="0 0 341 400" style="enable-background:new 0 0 341 400;" xml:space="preserve">
<style type="text/css">
	.st0{fill:#F6A4B0;}
	.st1{fill:#040404;}
	.st2{fill:#050505;}
	.st3{fill:#060605;}
	.st4{fill:#4E3831;}
	.st5{fill:#553E37;}
	.st6{fill:#5C4C44;}
	.st7{fill:#5D4C44;}
	.st8{fill:#503831;}
	.st9{fill:#4F3931;}
	.st10{fill:#503F37;}
	.st11{fill:#4B3931;}
	.st12{fill:#4C3830;}
	.st13{fill:#84766F;}
	.st14{fill:#543730;}
	.st15{fill:#4D3A32;}
	.st16{fill:#53423A;}
	.st17{fill:#5C4A42;}
	.st18{fill:#C7C1BE;}
	.st19{fill:#534139;}
	.st20{fill:#523932;}
	.st21{fill:#71635C;}
	.st22{fill:#644944;}
	.st23{fill:#523F36;}
	.st24{fill:#DEDAD8;}
	.st25{fill:#56453D;}
	.st26{fill:#9C7070;}
	.st27{fill:#5E4C44;}
	.st28{fill:#825452;}
	.st29{fill:#65554D;}
	.st30{fill:#887B74;}
	.st31{fill:#57463F;}
	.st32{fill:#46332A;}
	.st33{fill:#594941;}
	.st34{fill:#3A241A;}
	.st35{fill:#604D45;}
	.st36{fill:#877973;}
	.st37{fill:#4E3D35;}
	.st38{fill:#886763;}
	.st39{fill:#463229;}
	.st40{fill:#513D35;}
	.st41{fill:#7A6B63;}
	.st42{fill:#81736D;}
	.st43{fill:#4E3B32;}
	.st44{fill:#633F39;}
	.st45{fill:#B9B1AD;}
	.st46{fill:#6E5E57;}
	.st47{fill:#67574F;}
	.st48{fill:#65544C;}
	.st49{fill:#948782;}
	.st50{fill:#8C7F79;}
	.st51{fill:#534037;}
	.st52{fill:#524138;}
	.st53{fill:#706159;}
	.st54{fill:#5E4D45;}
	.st55{fill:#9E938E;}
	.st56{fill:#5F3E38;}
	.st57{fill:#57473F;}
	.st58{fill:#5E4F47;}
	.st59{fill:#9F9F9F;}
	.st60{fill:#7B4E4B;}
	.st61{fill:#90837D;}
	.st62{fill:#A09590;}
	.st63{fill:#AAA09B;}
	.st64{fill:#AAA19C;}
	.st65{fill:#948580;}
	.st66{fill:#F6A3AF;}
	.st67{fill:#71625B;}
	.st68{fill:#6B5B53;}
	.st69{fill:#C1BAB6;}
	.st70{fill:#5F4F47;}
	.st71{fill:#A89E99;}
	.st72{fill:#8F827C;}
	.st73{fill:#A99E9A;}
	.st74{fill:#90807B;}
	.st75{fill:#9C8C88;}
	.st76{fill:#F2A1AD;}
	.st77{fill:#5D3B37;}
	.st78{fill:#4B2F28;}
	.st79{fill:#6B5A52;}
	.st80{fill:#4F362D;}
	.st81{fill:#58463E;}
	.st82{fill:#48352C;}
	.st83{fill:#CC858A;}
	.st84{fill:#48352D;}
	.st85{fill:#412A21;}
	.st86{fill:#695850;}
	.st87{fill:#523D35;}
	.st88{fill:#74655D;}
	.st89{fill:#593933;}
	.st90{fill:#412920;}
	.st91{fill:#786861;}
	.st92{fill:#583F38;}
	.st93{fill:#F8C2C9;}
	.st94{fill:#948882;}
	.st95{fill:#62403A;}
	.st96{fill:#B0A7A3;}
	.st97{fill:#724945;}
	.st98{fill:#633F3B;}
	.st99{fill:#E6E3E2;}
	.st100{fill:#E4C3C5;}
	.st101{fill:#A96D6F;}
	.st102{fill:#BBAFAC;}
	.st103{fill:#786962;}
	.st104{fill:#4D312A;}
	.st105{fill:#472F27;}
	.st106{fill:#7A6B64;}
	.st107{fill:#422A20;}
	.st108{fill:#8A6965;}
	.st109{fill:#65413D;}
	.st110{fill:#694843;}
	.st111{fill:#68433F;}
	.st112{fill:#83736C;}
	.st113{fill:#67564E;}
	.st114{fill:#CEBEBD;}
	.st115{fill:#B09F9C;}
	.st116{fill:#BBACA9;}
	.st117{fill:#A29793;}
	.st118{fill:#5F4D45;}
	.st119{fill:#CDC8C5;}
	.st120{fill:#FFFFFF;}
	.st121{fill:#F6F4F3;}
	.st122{fill:#EF9FAB;}
	.st123{fill:#DAD9D8;}
	.st124{fill:#CECDCD;}
	.st125{fill:#FEFEFE;}
	.st126{fill:#FFFFFF;stroke:#FFFFFF;stroke-miterlimit:10;}
	.st127{fill:#59473F;}
	.st128{fill:#907570;}
	.st129{fill:#4C3D36;}
	.st130{fill:#3E291F;}
	.st131{fill:#D3888E;}
	.st132{fill:#905D5C;}
	.st133{fill:#E998A3;}
	.st134{fill:#C88186;}
	.st135{fill:#6B453F;}
	.st136{fill:#FDFCFC;}
	.st137{fill:#776861;}
	.st138{fill:#80716A;}
	.st139{fill:#998E89;}
	.st140{fill:#B5ADA9;}
	.st141{fill:#C1BAB7;}
	.st142{fill:#6B544E;}
	.st143{fill:#E6949E;}
	.st144{fill:#E1929A;}
	.st145{fill:#A66B6D;}
	.st146{fill:#54433B;}
	.st147{fill:#D0CAC7;}
	.st148{fill:#64544C;}
	.st149{fill:#3C261C;}
	.st150{fill:#615048;}
	.st151{fill:#695951;}
	.st152{fill:#6C5C54;}
	.st153{fill:#9C918C;}
	.st154{fill:#75615A;}
	.st155{fill:#885755;}
	.st156{fill:#6C5B53;}
	.st157{fill:#928680;}
	.st158{fill:#57453C;}
	.st159{fill:#6C5E57;}
	.st160{fill:#774E4A;}
	.st161{fill:#3B241A;}
	.st162{fill:#5F3D36;}
	.st163{fill:#452B22;}
	.st164{fill:#633F3A;}
	.st165{fill:#8A5957;}
	.st166{fill:#65403B;}
	.st167{fill:#764C4A;}
	.st168{fill:#A06768;}
	.st169{fill:#9F6768;}
	.st170{fill:#B9B2AE;}
	.st171{fill:#56443C;}
	.st172{fill:#54443C;}
	.st173{fill:#66554E;}
	.st174{fill:#DBD6D3;}
	.st175{fill:#7E706A;}
	.st176{fill:#463228;}
	.st177{fill:#938781;}
	.st178{fill:#463128;}
	.st179{fill:#705F58;}
	.st180{fill:#D6D1CE;}
	.st181{fill:#72615A;}
	.st182{fill:#473228;}
	.st183{fill:#C0B9B5;}
	.st184{fill:#7C6D66;}
	.st185{fill:#E0DCDA;}
	.st186{fill:#DFD0D0;}
	.st187{fill:#DAC2C2;}
	.st188{fill:#785F59;}
	.st189{fill:#8B7D77;}
	.st190{fill:#A39894;}
	.st191{fill:#905D5B;}
	.st192{fill:#6F5F58;}
	.st193{fill:#5C4B43;}
	.st194{fill:#867872;}
	.st195{fill:#998D88;}
	.st196{fill:#75665E;}
	.st197{fill:#706058;}
	.st198{fill:#9C918B;}
	.st199{fill:#ABA29D;}
	.st200{fill:#524037;}
	.st201{fill:#BDB5B2;}
	.st202{fill:#B5ACA8;}
	.st203{fill:#6F5F57;}
</style>
<g id="XMLID_2_">
	<path id="XMLID_786_" class="st0" d="M114.2,262c-6.6-1.1-9.6-6-12.3-11.4c-2-2.8-0.1-5.2,0.9-7.6c3.2-8,6.3-16,8.9-24.3
		c0.7-2.2,1.3-4.4,1.7-6.6c0.3-1.6,0.6-3.5-1-4.3c-1.9-0.9-2.8,0.9-3.7,2.2c-2.1,2.9-4,6-5.9,9.1c-1.1,1.7-1.4,4.6-4.6,4.1
		c-0.1-16.8-0.5-33.6,1-50.4c0.8-9.5-0.1-19-1.1-28.5c0.2-0.3,0.4-0.5,0.6-0.8c5.6-1.4,10.3,2.3,15.6,2.8c1.5,0.1,3.1,0.2,4.6,0.5
		c1.9,0.5,3.7,1.2,5.7,0.7c0.6-0.1,1.1-0.1,1.7-0.1c0.5,0.1,1,0.4,1.5,0.7c1.1,0.8,2.3,1.4,3.6,1.9c1.6,0.6,3.2,0.7,4.8,0.4
		c2.6-0.6,5.3-0.4,8-0.9c3.2-0.3,6.2,0.9,9.3,1.4c2,0.9,4,0.5,6.1,0.3c0.6,0,1.2,0.1,1.8,0.2c2.1,0.8,4.3,0.2,6.4-0.1
		c12.2,1.2,24.3,0,36.4-2.3c3.3-0.8,6.6-1.1,9.9-1.5c1.4,0,2.6,0.5,3.5,1.6c0.6,1.3,0.1,2.5-0.5,3.6c-1.3,1.9-0.1,3.9-0.1,5.8
		c0,1.6,0.8,2.8,1.9,3.9c0.4,0.5,0.7,0.9,1,1.5c0.6,1,1,2.1,1.3,3.2c0.1,0.6,0.1,1.2,0.1,1.7c-0.1,0.6-0.2,1.1-0.4,1.7
		c-0.3,1-0.6,2.1-0.6,3.2c0,1.1,0.3,2,0.8,3c0.4,0.7,0.8,1.4,1,2.2c0,1.4-0.3,2.8-0.4,4.2c-0.2,1.7-0.8,3.4-0.4,5.1
		c0.4,1.7,1,3.4,1.2,5.1c-0.3,2.3-0.3,4.6,1,6.7c0.1,0.6,0.1,1.2,0,1.8c-0.5,1.4-1.4,2.7-1.5,4.2c-0.2,1.9-0.1,3.8,0,5.6
		c0.1,3.2-0.3,6.5,0.6,9.7c0.4,3.1,1.6,6,3.5,8.5c0.2,0.6,0.3,1.2,0.2,1.8c-1.3,2.6-3.2,4.9-2.5,8.1c-0.1,0.6-0.3,1.2-0.5,1.7
		c-1.8,1.9-3.5,3.8-4.9,6c-1.5,1.4-1.2,3.6-2.2,5.3c-2,1.1-4.6,0.1-6.4,1.7c-1,0.6-2,1.1-3,1.6c-1.8,0.9-3.6,1.7-5.3,2.9
		c-1.5,1-3.1,2-4.8,2.6c-1.2,0.4-2.4,0.6-3.7,0.8c-2.2,0.3-4.2,1.1-6.4,1.2c-2.2,0-4.1,1-6.1,1.7c-1.6,0.2-3.2-0.2-4.7-0.2
		c-1.3,0-2.6,0-3.9,0c-2.7,0-5.4-0.1-8,0.9c-2,0.5-4,0.5-6,0.5c-2.8,0-5.6-0.3-8.3,0.3c-0.7,0.4-1.4,0.8-2,1.4
		c-0.4,0.4-0.8,0.7-1.3,1c-0.3,0-0.5,0.1-0.8,0.1c-0.2-0.1-0.5-0.2-0.7-0.2c-0.4-0.3-0.7-0.7-1-1.1c-0.5-0.5-1.1-0.9-1.8-1.1
		c-0.5-0.1-1-0.2-1.5-0.3c-1-0.3-2.1-0.6-3.1-0.9c-1.4-0.5-3-0.1-4.1-1.4c-1.3-2.2-2.9-2.4-4.9-0.8c-1.6,1.3-3.3,2.2-5.3,0.6
		C119.9,263.3,116.7,264.4,114.2,262z"/>
	<path id="XMLID_785_" class="st1" d="M98.2,223.2c3.2-4.9,6.3-9.9,9.6-14.8c1.3-2,2.8-5.1,5.7-3.6c2.5,1.4,2.6,4.4,1.8,7.3
		c-2.4,9.7-6,19-9.5,28.3c-1.3,3.4-2.5,6.8-3.8,10.1c-6.2,12.8-15.1,25-17.3,38.9c-3.7,23.2-3.8,46.7,6.6,68.9
		c0.6,1.3,1.2,2.7-0.5,3.5c-1.3,0.6-2.7,0.2-3.5-1.1c-2.3-3.7-3.3-8-4.2-12.2c-3.1-13.9-3.8-28-3.8-42.2c0-4.9,0-9.9,0-16.2
		c-12.8,9.6-23,19.6-33.1,29.6c-2.2,2.1-1.5,5.1-1.8,7.7c-1.4,12.8,4.2,24.6,5.1,37c0.2,3.1,2.7,8-1.6,8.9c-3.9,0.8-3.5-4.7-4.1-7.4
		c-1.5-6.4-2.3-13-3-19.6c-0.6-6-3.4-9.7-9.6-10.6c-3.8-0.5-5.6-2.6-2-4.9c13.2-8.3,12.1-22.1,13.7-34.6
		c3.1-24.5,16.1-58.3,30.4-76.7c1.5-2,3.1-3.9,5-5.6c2-1.7,4.1-4.3,7.1-2.4c2.7,1.7,2.3,4.7,1.8,7.5c-1.4,8-5.4,14.9-9.2,21.9
		c-6.4,11.6-13.8,22.5-21.7,33.1c-8,10.9-12,24.8-11.1,40.2c7.2-6.5,13.5-13,20.6-18.4c10.1-7.6,16.8-16.1,18-29.8
		C85.2,251.2,91.7,237,98.2,223.2z"/>
	<path id="XMLID_784_" class="st2" d="M197.9,310.4c7.2,1.8,12.6-1.6,17.7-6.1c7.3-6.5,12.1-14.8,16.8-23.1c1.1-2,2.3-5.1,4.6-4
		c2.9,1.4,0.1,3.9-0.8,5.6c-3.7,7.2-4.7,14.8-4.9,23.4c4.2-1.5,5-4.5,6.5-6.8c5.9-9.7,11.5-19.6,17.6-29.2c1.3-2,2.9-5.8,6.1-4.1
		c2.9,1.5,1.4,5,0.8,7.5c-3.4,12.5-8.1,24.6-9.5,37.6c-0.2,1.6-0.4,3.2-0.3,4.7c0.3,3.7,2,4.5,4.6,1.7c6.6-7,11.4-15.4,17-23.1
		c1.2-1.6,0.5-1.9-1-2.7c-2.9-1.5-4.3-4-2.7-7.4c4.4-9.7,9.7-18.6,18.5-24.9c1.9-1.3,4.1-2.8,6.2-1c2.1,1.8,2.4,4.3,1.1,6.8
		c-2.7,5.2-5.4,10.3-8.9,17c5.8-2.9,10-5.4,14.5-7.2c3.7-1.5,8-6.6,11.4-2.6c3.2,3.9-2.7,7-4.8,10c-9.3,12.7-18.1,25.7-21.7,41.3
		c-1.3,5.8-2.1,11.6-1,17.6c1.1,6.3,3.6,7.4,8.5,3.6c0.5-0.4,1-1,1.6-1.3c2-1,2.9-5.8,5.5-3.3c2.2,2.2-1.4,4.6-3.2,6.3
		c-2.9,2.8-6.5,4.5-10.6,3c-4.2-1.6-5.3-5.2-5.7-9.3c-1.5-13.7,2.5-26.2,9.1-37.9c4.5-8.1,9.8-15.8,15.9-25.5
		c-10.7,6.6-21.9,8.6-28.7,18.3c-5.3,7.7-10.7,15.3-16.3,22.8c-2.1,2.8-4.8,5.3-8.7,4c-4.3-1.5-4.4-5.4-4.4-9.1
		c-0.1-10,3.6-19.2,6.1-28.6c0.6-2.3,1.4-4.6,1.7-7.1c-4.7,4.7-7.2,10.8-10.5,16.4c-2.6,4.5-5.1,9.1-8,13.5c-3.1,4.7-6.6,5.4-9.9,0
		c-1.4-3.1,0.7-6.5-1.2-9.6c-5.5,5.5-9.7,12.5-17.6,15.4c-4.5,1.7-8.8,2.6-11.4-2.9L197.9,310.4z"/>
	<path id="XMLID_783_" class="st3" d="M122.7,263.3c2.2,1.7,3.6,0,5-1.3c1.3-1.2,2.4-3.1,4.4-2.5c2.6,0.7,1.6,3.3,1.9,5.1
		c0.1,1.2,0.3,2.4,0.4,3.5c0.1,1.1,0.3,2.4-0.6,3.3c-10.5,11.1-12.4,25.4-14.8,39.5c-0.3,1.9-0.9,4.6,1,5.7c2.3,1.3,3.6-1.2,5-2.5
		c9.4-8.8,16.6-19.4,24.3-29.5c2.6-3.4,4.1-7.6,3.6-12.2c-0.2-1.7-0.2-3.4,0.8-5c0.8-0.8,1.7-1.2,2.8-1.3c7-0.9,5.5,3.4,4.6,7.5
		c-4.7,12-6.1,24.8-9,37.3c3.2-12.3,6.6-24.5,12.4-35.9c1.3-1.7-0.2-3.6,0.6-5.4c0.9-1.2,2.1-1.8,3.5-2c1.6-0.1,3,0.2,4.1,1.4
		c1.1,1.9,0.4,3.7-0.4,5.5c0,8.9-2.4,17.7-1.6,26.6c0.3,2.7-0.4,6.1,2.3,7.3c2.6,1.2,4.4-1.9,6.1-3.5c7.5-7.1,13.7-15.3,19.5-23.8
		c0.4-0.6,0.6-1.2,1-1.8c2.9-3.6,5.9-7.3,11.2-6.3c2.4,0.5,3.7,2.4,3.8,5c0.3,5.5-3.1,8.9-6.9,11.9c-3.9,2.9-4.7-1.6-6.8-3.2
		c-4.6,6.3-5.2,10.8-3.1,23.6c0,0,0.1-0.2,0.1-0.2c-5.9-3.4-4.4-9.3-4.6-12.5c-3.8,3.2-8.5,7.4-13.4,11.4
		c-6.5,5.2-10.7,3.4-12.4-4.6c-1.3-6.2-0.8-12.2,0-18.9c-4.5,3.2-4.9,8-6.2,12.1c-2.6,8.2-4.5,16.7-6.8,25c-0.6,2-0.3,5.3-3.5,5
		c-3-0.3-3.5-3.3-3.7-5.8c-0.7-9.1,0.6-18.2,2-27.9c-6.6,8-12.2,16.1-19.3,22.8c-0.8,0.8-1.5,1.7-2.4,2.4c-3,2.4-5.8,5.9-10.1,4
		c-4.2-2-3.8-6.4-3.7-10.2c0.1-11.6,4.1-22.3,7.7-33.1c0.4-1.2,1.5-2.3,0.6-4.6c-3.9,5.1-7.4,9.9-11,14.6c-1.8,2.3-3.9,4.5-5.8,6.7
		c-1.2,1.4-2.8,1.5-4.4,1c-2-0.5-1.9-2.4-2.1-3.9c-0.9-8.3,8.6-19.7,17-20.7c4.8-0.6,5.6-1.7,5.2-7.9
		C121,263.8,121.1,262.9,122.7,263.3z"/>
	<path id="XMLID_782_" class="st4" d="M172.2,274.5c0-1.9-0.1-3.8-0.1-5.7c-0.5-1,0.1-1.6,0.7-2.3c1.1-0.9,2.3-1.8,3.4-2.8
		c1.7-1.1,2.7,0.8,4.2,0.8c2.8,1.5,3.5-1.8,5.4-2.4c2.3-0.5,4.6-0.9,6.9-1.4c0.9,1.2,2.1,1.9,3.3,2.6c1.6,1.1,4.1,0.5,5.4,2.5
		c0.3,0.9,0.3,1.8-0.4,2.5c-7.1,2.6-14.6,3.4-22.1,3.6C176.1,272,173.9,272.1,172.2,274.5z"/>
	<path id="XMLID_781_" class="st5" d="M196.4,103.9c3.8-3.4,8.4-1.3,12.2-0.7c10.4,1.6,21,3.9,26.8,14.4c1.9,2.3,2.1,4.6,0.3,7.1
		c-3.9,0.7-3.6-2.2-3.9-4.5c-0.4-1.7-1.9-1.9-3.2-2.4c-1.5-0.4-2.8-0.9-4.1-1.8c-0.5-0.3-0.9-0.8-1.2-1.2c-1-1.8-2.4-3-4.6-2.9
		c-0.6-0.1-1.1-0.3-1.6-0.6c-1.6-1.4-3.2-2.6-5.4-2.7c-2.7-0.2-5.2-0.7-7.6-1.9C201.6,105.4,198.2,106.7,196.4,103.9z"/>
	<path id="XMLID_780_" class="st6" d="M264.2,200.7c0.2,0.3,0.2,0.6-0.2,0.9c-2,1.3-2.5,3.4-2.7,5.6c-0.7,4.1-4.8,4.5-7.3,6.8
		c-2.3,1.5-3.9,8.3-7.3,0.9c3.6-7.4,8.1-14.2,12.6-20.9c1.2-0.7,2.4-1.5,3.8-0.4C264.3,195.8,264.8,198.2,264.2,200.7z"/>
	<path id="XMLID_779_" class="st7" d="M233.6,153.6c0.1,0.8,0.3,1.6,0.4,2.5c0,3.1,5.5,1.5,4.5,5.4c-0.7,1.8-3.5,2.2-3.2,4.7
		c0.8,5.8-2.6,5.7-6.6,4.7c-0.6-0.3-1-0.8-1.3-1.3c-0.3-0.6-0.4-1.2-0.5-1.8c0.1-3.1-1.2-5.7-2.8-8.2c-0.2-0.6-0.2-1.2,0-1.7
		c0.3-0.5,0.7-1,1.1-1.4c1.8-1.2,1.6-3.9,3.6-5C231,150.7,232.6,151.4,233.6,153.6z"/>
	<path id="XMLID_778_" class="st8" d="M196.4,103.9c2.8,0.9,6.2-1,8.6,1.7c-1.3,1.7-3.3,2.2-5.2,2.8c-7.6,1-15.2,0.5-22.9,0.4
		c-2.3,0-4.7,0-7.1,0c-1.2,0-2.3,0-3.5,0c-2.7,0-5.4,0-8.2,0c-2.4-0.1-5,0.1-6.9-1.8c-0.2-0.9,0-1.6,0.8-2.1
		c6.7-1.8,13.4,0.1,20,0.3C180.2,105,188.2,102.5,196.4,103.9z"/>
	<path id="XMLID_777_" class="st9" d="M236.5,138.2c-1.5,2.6-3.1,5.3-4.6,7.9c0.1,3.6-3.2,3.2-5.2,4.4c-0.6,0.2-1.3,0.3-1.9,0.4
		c-2.5,0-4.7-0.6-6.4-2.6c2.7-7.7,9.8-9.4,16.3-12.1C235.8,136.4,236.7,136.8,236.5,138.2z"/>
	<path id="XMLID_776_" class="st10" d="M247.1,215.1c3.1,4.2,4.4-2,6.9-1.1c-2.4,6.6-9.5,10.5-17.4,9.6c-0.4-0.6-0.5-1.2-0.3-1.8
		C239.6,219,242.1,215.1,247.1,215.1z"/>
	<path id="XMLID_775_" class="st11" d="M259.9,164.6c4,1,3.6,5.3,5.6,7.7c2.7,6.5,2.4,7.2-4,9.2c-3.6-1.8-3.6-5.3-4-8.6
		c0.1-1.4,2.2-2.3,0.9-4.1c-0.5-1.4-0.7-2.8,0.6-3.9C259.4,164.9,259.6,164.7,259.9,164.6z"/>
	<path id="XMLID_774_" class="st12" d="M151.5,105.8c0,0.4,0,0.8,0,1.1c-0.2,1-0.8,1.7-1.6,2.3c-5.7,2.4-11.6,1.3-17.5,1.3
		c-1.9-1.2-4.2-1.9-4.2-4.7c6.8-1.3,13.7,1.1,20.4-0.6C149.8,104.7,150.7,104.8,151.5,105.8z"/>
	<path id="XMLID_773_" class="st13" d="M238,161.9c0.8-3.4-5.1-2.3-3.9-5.9c1.7,2.6,3.9,0.8,6,0.7c3.6-0.1,7.8-2.2,10.2,2.5
		c0.4,0.6,0.4,1.1-0.1,1.6c-0.5,0.3-1.1,0.5-1.8,0.5c-2.9-0.6-5.2,0.8-7.4,2.2C239.5,163.8,238.6,163.2,238,161.9z"/>
	<path id="XMLID_772_" class="st14" d="M128.2,105.8c1.4,1.2,2.7,2.5,4.1,3.7c-4.5,3.6-9.3,4.2-14.4,1.5c-0.6-0.4-1-1-1.2-1.7
		c0-2.2,2.2-2.4,3.3-3.5C122.8,105.8,125.5,105.8,128.2,105.8z"/>
	<path id="XMLID_771_" class="st15" d="M151.3,48c2.3,3.6,4.7,7.3,7,10.9c0.7,0.6,0.9,1.4,0.7,2.4c-0.3,0.9-0.9,1.5-1.7,2
		c-0.6,0.2-1.1,0.1-1.5-0.4c-1.3-4.6-5.6-7.4-7.4-11.8C147.9,48.7,149.1,47.9,151.3,48z"/>
	<path id="XMLID_770_" class="st16" d="M225.3,231.6c0-0.3,0-0.6,0.1-0.9c-0.3-0.5-0.4-1-0.4-1.6c0.3-0.4,0.7-0.8,1.2-1.1
		c1-0.5,1.6-1.2,2.2-2.1c0.4-0.4,0.9-0.8,1.4-1c1.2-0.5,2.3-0.8,3.5-0.1c1.9,1.5,3.2,3.2,2.1,5.8c0,0.5-0.2,0.8-0.5,1.2
		c-0.6,0.9-1.3,1.7-2.1,2.4c-0.6,0.5-1.3,1-2.2,1.2c-0.9,0.2-1.7,0.1-2.6-0.3C226.7,234.2,225.7,233.2,225.3,231.6z"/>
	<path id="XMLID_769_" class="st17" d="M211.6,263.4c-2.3,5.6-4.5,2.2-6.6-0.2c-0.2-0.2-0.4-0.5-0.6-0.7c-0.4-0.9-0.3-1.8,0-2.7
		c1.8-2,4.2-2.6,6.6-3.2c0.7,0,1.4,0.2,2,0.5c0.6,0.4,1,1,1.3,1.7C214.4,261,215.4,263.7,211.6,263.4z"/>
	<path id="XMLID_768_" class="st18" d="M151.5,105.8c-1-0.2-1.9-0.4-2.9-0.6c-0.2-0.3-0.2-0.6,0-0.8c2.5-2,5.7,0.2,8.2-1.5
		c5.4-1.5,10.2,1.2,15.3,2.2C165.3,105.4,158.4,105.6,151.5,105.8z"/>
	<path id="XMLID_767_" class="st19" d="M261.3,181c4.7-1.2,5.6-4.4,4.2-8.6c2.9,2.8,3,6.3,2.5,10c-2.5,1.5-2.6,5.8-6.6,5.6
		C259.3,185.7,259.3,183.4,261.3,181z"/>
	<path id="XMLID_766_" class="st20" d="M91.2,141.5c-3.4-3.2-3.9-7.5-4.1-11.8c-0.1-2.5,1.4-1.3,2.5-0.8c2-0.6,2.3,0.9,2.9,2.2
		c0.5,2.3,0.8,4.7,0.8,7.1C93,139.5,92.4,140.7,91.2,141.5z"/>
	<path id="XMLID_765_" class="st21" d="M169.7,76.9c-1.8,2.3-0.9,5.9-4,7.9c0-5.7,0.5-11.1,2.6-16.3c1.5-0.4,2.3,0.4,3,1.5
		C171.8,72.5,171.4,74.8,169.7,76.9z"/>
	<path id="XMLID_764_" class="st22" d="M97.8,113.8c2.1-1.4,3.1-4.3,6.1-4.5c1.1,0.4,2.3,0.7,3,1.9c0.3,0.6,0.4,1.1,0.5,1.8
		c-0.1,2.1-1.1,3.5-3,4.2c-1.5,0.3-2.9,0.1-4.4-0.1c-0.6-0.2-1-0.5-1.4-0.9C98.1,115.4,97.9,114.6,97.8,113.8z"/>
	<path id="XMLID_763_" class="st23" d="M91.3,132c-0.2-1.3-0.4-2.5-1.7-3.2c-0.4-4.4-1.1-8.9,4.3-11c0.2,0.3,0.4,0.5,0.7,0.8
		C93.4,123,96.3,128.4,91.3,132z"/>
	<path id="XMLID_762_" class="st24" d="M169.7,76.9c0.3-2.4,0.6-4.7,0.9-7.1c-1-2.1-0.3-3.4,1.8-4C174.1,70.1,175.9,74.4,169.7,76.9
		z"/>
	<path id="XMLID_761_" class="st25" d="M181.9,75.3c0.3,2.6-2.8,8.8-4.9,9.2c-1.8,0.4-2.5-0.4-1.7-2.2c0.8-1.8,1.6-3.7,2.4-5.5
		C179.1,76.5,180.1,74.7,181.9,75.3z"/>
	<path id="XMLID_760_" class="st26" d="M237.1,126.1c3.6,2.4,2.6,5.4,1,8.5c-1.9,0.1-4,1.4-5.3-1.1c-0.8-3-0.2-5.7,2.4-7.7
		C236,125.3,236.6,125.4,237.1,126.1z"/>
	<path id="XMLID_759_" class="st27" d="M264.2,200.7c-1.3-2.3-1.8-4.8-1.6-7.5c-1-0.9-1.1-2-0.8-3.2c0.2-0.6,0.6-1,1.1-1.2
		c1.3-0.1,2.2,0.5,3.1,1.3c0.6,0.6,1,1.4,1.3,2.2C266.8,195.2,267.3,198.6,264.2,200.7z"/>
	<path id="XMLID_758_" class="st28" d="M91.2,141.5c0-1.2,0.1-2.3,1.3-3c2.9,1,6.8-1.4,8.9,2.5c0,2.2-1.8,2.2-3.3,2.6
		c0,0.2,0,0.5,0,0.7C95.4,144.3,92.6,144.4,91.2,141.5z"/>
	<path id="XMLID_757_" class="st29" d="M227.1,149.7c1.6-1.2,3.2-2.4,4.8-3.6c3.6,1.8,0.6,5.1,1.7,7.5c-1.6-1-3.4-1.5-5.3-1.4
		C227.5,151.6,227.1,150.7,227.1,149.7z"/>
	<path id="XMLID_756_" class="st30" d="M169.2,59c-0.9-2.3-1.8-4.6-2.7-6.8c0.5-0.5,1.1-0.6,1.6-0.1c2.8,2.2,5.5,4.3,5,8.4
		c-0.5,0.3-0.9,0.3-1.4,0C171,59.9,170,59.6,169.2,59z"/>
	<path id="XMLID_755_" class="st31" d="M181.9,75.3c-1.4,0.6-2.1,3.1-4.2,1.5c-0.4-2.5,2-4.7,0.6-7.5c-0.4-0.8-0.1-5.4,3.5-2.1
		c0.6,2.3-0.4,4.6,0.1,6.9C181.7,74.5,181.8,74.9,181.9,75.3z"/>
	<path id="XMLID_754_" class="st32" d="M265.4,190.6c-1-0.5-1.9-1-2.9-1.5l-0.3-0.5l0.3-0.5c1.6-2.2,1-6.5,5.5-5.7
		c0,0.9,0.1,1.8,0.1,2.7C266.7,186.7,267.5,189.4,265.4,190.6z"/>
	<path id="XMLID_753_" class="st33" d="M151.3,48c-1.4,0.6-2.2,1.7-2.8,3.1c-2.6-1.1-4.2-2.9-3.8-5.9c0.5-0.5,1-0.8,1.7-1
		c1-0.1,1.9,0.4,2.8,0.7C150.2,45.8,151.3,46.5,151.3,48z"/>
	<path id="XMLID_752_" class="st34" d="M172.1,60.6c0.4,0,0.7,0,1.1-0.1c1,2-0.5,3.5-0.8,5.3c-0.6,1.4-2.1,2.3-1.8,4
		c-0.8-0.4-1.5-0.9-2.3-1.3c-0.2-0.5-0.2-0.9,0.1-1.3C169.5,64.9,167,60.6,172.1,60.6z"/>
	<path id="XMLID_751_" class="st35" d="M161,71.4c-1.1,2.5,0.6,5.6-1.7,7.9c0.5-2.8-3.1-5.7,0.2-8.5C160.1,70.5,160.7,70.7,161,71.4
		z"/>
	<path id="XMLID_750_" class="st36" d="M223.2,256.8c-0.4,3.7-3.2,4.2-6.1,4.6c-0.5-0.8-0.5-1.6-0.3-2.5c1.1-1.8-0.7-3.9,0.9-5.6
		c1.7-0.7,3,0,4.3,1C222.6,254.9,223.1,255.8,223.2,256.8z"/>
	<path id="XMLID_749_" class="st37" d="M144.5,23.5c-1.9-3.2,1.4-4.1,2.5-5.9c0.7-0.4,1.4-0.8,2.3-0.7c0.5,0.1,1,0.4,1.4,0.8
		c-1.3,1.9-1.1,4.5-3.2,5.9C146.4,23.5,145.4,24.2,144.5,23.5z"/>
	<path id="XMLID_748_" class="st38" d="M122.7,263.3c-0.5,0.5-0.9,1.1-1.4,1.6c-4.8,4.9-4.8-1.9-7.1-2.9
		C117,263,120.2,261,122.7,263.3z"/>
	<path id="XMLID_747_" class="st39" d="M250.1,160.4c0.2-0.4,0.3-0.8,0.2-1.2c4.4-0.3,7.4,1.9,9.6,5.4c0,0,0.1-0.1,0.1-0.1
		c-1.9,1.6-3.8,0.6-5.7,0.1C252.3,163.7,250.6,162.6,250.1,160.4z"/>
	<path id="XMLID_746_" class="st40" d="M217.5,259.2c-0.2,0.7-0.3,1.4-0.5,2.1c-1.3,2-2.4,4.6-5.5,2.1c2.4-1.3,1.4-3.6,1.6-5.6
		c0.5-0.4,1-0.5,1.5-0.5C215.9,257.7,216.9,258.2,217.5,259.2z"/>
	<path id="XMLID_745_" class="st41" d="M143.1,42.7c-2.8-4-3.4-8.2-1.2-12.7c1.4,1.5,1.4,3.5,2.4,5.1c0.5,1.5,0.4,3.2,1,4.7
		C145.2,41.3,144.5,42.3,143.1,42.7z"/>
	<path id="XMLID_744_" class="st42" d="M235.3,230.6c0-2.4-2.1-3.7-2.9-5.7c-0.3-0.3-0.5-0.7-0.5-1c0-0.4,0-0.6,0.1-0.6
		c0.7-1.1,1.7-1.8,3-1.9c0.6,0.1,1.1,0.3,1.6,0.8c0.1,0.4,0.1,0.9,0,1.3C236.4,226,237.2,228.5,235.3,230.6z"/>
	<path id="XMLID_743_" class="st43" d="M200.9,268.4c0-0.8-0.1-1.6-0.1-2.5c-0.5-0.8-0.9-1.7-0.8-2.7c0.2-0.6,0.5-1.2,1-1.6
		c2-0.8,3.1,0.2,4,1.8c0,0,0,0,0,0C203.2,264.6,205.5,269.3,200.9,268.4z"/>
	<path id="XMLID_742_" class="st44" d="M106.4,112.8c0-0.5-0.1-1.1-0.1-1.6c1.1-0.6,1.4-1.4,1.2-2.6c1.6,0.6,2.8-1.7,4.4-0.7
		c0.4,1.6,1.8,2.9,1.1,4.7C110.8,114.3,108.6,114.3,106.4,112.8z"/>
	<path id="XMLID_741_" class="st45" d="M144.8,40.2c-2.2-1-1.1-3.1-1.7-4.7c-0.6-1.4-0.8-2.6,1.4-2.6c2.8,1.7,1,4.5,1.6,6.8
		c-0.2,0.2-0.3,0.4-0.5,0.6C145.3,40.2,145.1,40.2,144.8,40.2z"/>
	<path id="XMLID_740_" class="st46" d="M172.1,60.6c-3.2,1.1-1.6,4.9-3.7,6.6c-0.1-2.8-0.5-5.6,0.9-8.2
		C171,58,172.1,58.3,172.1,60.6z"/>
	<path id="XMLID_739_" class="st47" d="M237.1,126.1c-0.6,0-1.2,0-1.7,0c-0.4-0.2-0.5-0.4-0.5-0.7c0.1-0.3,0.1-0.5,0.2-0.5
		c0.9-2.4,0.5-4.8,0.1-7.2C238.3,120,239.1,122.7,237.1,126.1z"/>
	<path id="XMLID_738_" class="st48" d="M223.2,256.8c-0.6-0.5-1.1-1.1-1.7-1.6c-0.7-0.7-0.8-1.6-0.5-2.6c0.3-0.5,0.8-1,1.3-1.3
		c0.8-0.5,1.7-0.8,2.7-0.8c0.6,0.2,1.1,0.6,1.4,1.2c0.5,1.4,0.2,2.5-0.7,3.7C225.4,256.6,224.3,256.7,223.2,256.8z"/>
	<path id="XMLID_737_" class="st49" d="M225.7,255.3c0.1-1.4,0.3-2.8,0.4-4.1c0-1.5,1-2.1,2.3-2.2c0.6,0.1,1.1,0.4,1.5,1
		C229.9,252.7,228.8,254.8,225.7,255.3z"/>
	<path id="XMLID_736_" class="st50" d="M232.5,247.1c0.1,1.8-1.1,2.4-2.6,2.7c-0.2-0.2-0.4-0.5-0.7-0.7c-2.3-0.5-3.8-1.4-2.5-4.1
		c0.5-0.5,1.1-0.8,1.7-1C230.8,243.8,233.8,242.6,232.5,247.1z"/>
	<path id="XMLID_735_" class="st51" d="M232.5,247.1c-0.1-3.6-2.7-1.2-4.1-1.7c-1-1.7-0.1-3,0.9-4.2c0.5-0.3,1.1-0.5,1.8-0.5
		c1.6,0.2,3,0.8,3.9,2.2C234.8,244.7,234.5,246.4,232.5,247.1z"/>
	<path id="XMLID_734_" class="st52" d="M144.5,32.9c-1.4,0.4-1.2,1.6-1.4,2.6c-1.8-1.5-0.6-3.7-1.3-5.5c-0.1-2,0.5-3.2,2.8-2.3
		c0.4,0.2,0.5,0.4,0.4,0.7c-0.1,0.3-0.2,0.4-0.3,0.4C143.6,30.1,143.6,31.4,144.5,32.9z"/>
	<path id="XMLID_733_" class="st53" d="M181.8,74.1c-3-2.3-1.1-4.6-0.1-6.9C182.7,69.4,184.6,71.7,181.8,74.1z"/>
	<path id="XMLID_732_" class="st54" d="M232.4,233.1c0.5-1,1.3-1.3,2.4-1.3c1,2.7,2.8,5.4,0.4,8.4c-1.3-0.9-1.7-2.4-2.5-3.7
		C232.3,235.4,231.6,234.3,232.4,233.1z"/>
	<path id="XMLID_731_" class="st55" d="M144.7,28.8c-0.3-0.3-0.4-0.7-0.1-1.1c-0.9-1.4-1.1-2.8-0.2-4.3c1,0,2-1.7,2.9,0.1
		C147.3,25.7,146.2,27.3,144.7,28.8z"/>
	<path id="XMLID_730_" class="st56" d="M113.1,111c-3-0.1-1.5-1.8-1.1-3.2c0.8,0.1,1.6,0.1,2.3,0.2c1.1-0.5,2.2-0.6,3,0.5
		c0,0.4,0,0.7,0,1.1C116.3,111.5,115.1,112.5,113.1,111z"/>
	<path id="XMLID_729_" class="st57" d="M165.2,50.7c-2.6-1.7-2.4-5.2-0.9-6.1c2.2-1.4,2.3,1.6,2.6,3.2
		C166.6,49,166.4,50.1,165.2,50.7z"/>
	<path id="XMLID_728_" class="st58" d="M261.3,207.2c-1.8-3.2-1.3-5.2,2.7-5.6C264,203.9,263.2,205.8,261.3,207.2z"/>
	<path id="XMLID_727_" class="st59" d="M226.9,297.8c2.7,2.9,0.2,6.4,1.2,9.6C225.6,304.4,227.1,301,226.9,297.8z"/>
	<path id="XMLID_726_" class="st60" d="M234,134.4c1.4-0.8,2.8-2.1,4.1,0.1c-0.3,1.3,0.4,3.1-1.6,3.6c-0.6-0.5-1.2-0.9-1.8-1.4
		C233.9,136.2,233.3,135.5,234,134.4z"/>
	<path id="XMLID_725_" class="st61" d="M155.9,62.9c0.4,0,0.7,0.1,1,0.2c2.2,0.6,3,2.4,3.5,4.4c0,0.7-0.3,1.2-0.9,1.7
		C155.7,68.6,154.9,66.2,155.9,62.9z"/>
	<path id="XMLID_724_" class="st19" d="M265.4,190.6c0.3-2.2,1-4.1,2.8-5.5c0.2,2.4,0.8,4.9-0.8,7.1
		C266.7,191.7,266,191.2,265.4,190.6z"/>
	<path id="XMLID_723_" class="st62" d="M235,242.9c-1.5-0.2-3,0-4.1-1.4c-0.4-0.5-0.6-1-0.7-1.6c0.1-0.6,0.3-1.1,0.7-1.6
		c0.5-0.3,1.1-0.4,1.7-0.4c1.9,0.3,1.4,2.4,2.4,3.4C235.1,241.8,235,242.4,235,242.9z"/>
	<path id="XMLID_722_" class="st63" d="M158.2,61.7c0-0.9,0.1-1.9,0.1-2.8c2.2-0.4,3.1,1,3.9,2.7c-0.5,1.3-1.2,2.2-2.7,2.1
		C158.5,63.4,157.8,62.9,158.2,61.7z"/>
	<path id="XMLID_721_" class="st64" d="M159.6,69.1c0-0.7,0-1.4,0.1-2.2c-0.3-0.3-0.4-0.6-0.4-0.9c0-0.3,0.1-0.5,0.2-0.5
		c1.1-0.6,2,0.1,3,0.4c3.2,2.8-3,3-1.4,5.3c-0.5-0.2-1-0.3-1.6-0.5C159.5,70.3,159.5,69.7,159.6,69.1z"/>
	<path id="XMLID_720_" class="st65" d="M117.2,108.6c-1-0.2-2-0.3-3-0.5c1.4-2.1,3.4-2.7,5.8-2.3C120,107.5,118.7,108.2,117.2,108.6
		z"/>
	<path id="XMLID_719_" class="st66" d="M107.5,108.5c1.5,1.8,0.5,2.3-1.2,2.6c-1-0.3-2.6,0.2-2.3-1.8
		C104.8,107.8,106.2,108.4,107.5,108.5z"/>
	<path id="XMLID_718_" class="st67" d="M149.3,44.9c-1.2,0.1-2.4,0.2-3.7,0.2c-0.6-1.6-1.1-3.2,0.3-4.7c0-0.3,0.1-0.5,0.1-0.8
		C147.1,41.4,148.2,43.2,149.3,44.9z"/>
	<path id="XMLID_717_" class="st68" d="M165.2,50.7c0-1.3,0.4-2.4,1.7-2.9c1.5,1.1,0.6,2.8,1.2,4.2c-0.5,0-1.1,0.1-1.6,0.1
		C166.1,51.7,165.6,51.2,165.2,50.7z"/>
	<path id="XMLID_716_" class="st69" d="M162.4,66c-1,1.6-1.6-0.3-2.4-0.3c-1.1-0.8-1.1-1.7-0.2-2.7c0.8-0.5,1.6-0.9,2.4-1.4
		C162.3,63.1,162.4,64.6,162.4,66z"/>
	<path id="XMLID_715_" class="st70" d="M156.9,102.9c-2.5,2.1-5.4,1.1-8.2,1.5C150.8,100.6,154.3,104.3,156.9,102.9z"/>
	<path id="XMLID_714_" class="st71" d="M150.1,13.4c0.2-0.8,0-2.8,1.4-0.9c1.3,1.7,0.6,3.6-0.9,5.1c0,0-0.3,0.4-0.3,0.4l-0.5-0.2
		C149,16.4,149.2,14.9,150.1,13.4z"/>
	<path id="XMLID_713_" class="st37" d="M235.1,241.3c-0.9-1-1.7-1.9-2.6-2.9c-0.9-1.5-1-2.7,1.3-2.6c1.6,1,1.2,2.7,1.4,4.2
		C235.3,240.5,235.3,240.9,235.1,241.3z"/>
	<path id="XMLID_712_" class="st34" d="M145.9,40.4c-0.1,1.6-0.2,3.1-0.3,4.7c0,0-0.4,0-0.4,0l-0.4,0.1c-0.6-0.8-1.1-1.7-1.7-2.5
		c0.6-0.8,1.2-1.7,1.8-2.5C145.3,40,145.6,40.1,145.9,40.4z"/>
	<path id="XMLID_711_" class="st68" d="M150.1,13.4c-0.1,1.5-0.1,3-0.2,4.4c-1-0.1-1.9-0.2-2.9-0.3
		C147.7,15.9,148.1,14.1,150.1,13.4z"/>
	<path id="XMLID_710_" class="st72" d="M159.1,86c0,0-0.3,1-1,1.2c-1.5,0.6-1.1-0.9-1.1-1.5c0-0.8,0.4-1.8,1.5-1.8
		C159.2,83.9,159.8,84.3,159.1,86z"/>
	<path id="XMLID_709_" class="st73" d="M97.8,113.8c0.5,0.2,1,0.5,1.5,0.7c-0.2,0.5-0.5,0.9-0.9,1.3c-0.5,0.1-1,0-1.5-0.2
		c-0.1-0.2-0.2-0.5-0.3-0.7C97,114.5,97.4,114.2,97.8,113.8z"/>
	<path id="XMLID_708_" class="st34" d="M94,116.4c-0.1-0.9,0.2-1.3,1.1-1.1c0.3,0.2,0.4,0.5,0.3,0.8c-0.1,0.3-0.1,0.4-0.2,0.4
		C94.8,116.9,94.4,116.8,94,116.4z"/>
	<path id="XMLID_707_" class="st74" d="M95.3,116.6c0-0.4-0.1-0.8-0.2-1.3c0.5-0.2,0.9-0.3,1.4-0.5c0,0,0.1,0.6,0.1,0.6
		c0.1,0.5-0.1,1-0.6,1.3C95.8,116.7,95.6,116.7,95.3,116.6z"/>
	<path id="XMLID_706_" class="st75" d="M94,116.4c0.4,0.1,0.9,0.2,1.3,0.2c0,0-0.1,0-0.1,0c0.3,0.3,0.5,0.7,0.4,1
		c-0.1,0.4-0.1,0.6-0.2,0.6c-0.6,0.3-1.1,0.3-1.6-0.2c0,0,0.1-0.2,0.1-0.2C93.9,117.3,94,116.9,94,116.4z"/>
	<path id="XMLID_705_" class="st76" d="M93.8,118l0.3,0.3l0.4-0.2c1-0.2,1.9-0.1,2.8,0.4c0.8,0.6,1.3,1.4,1.5,2.4
		c-0.1,3.4-2.7,7.3,1.7,9.9c0.5,0.4,0.8,0.9,1,1.5c0.2,0.6,0.3,1.1,0.3,1.7c0.6,3.3,3.2,2.6,5.4,2.6c5.8-2.1,11.2,0.3,16.7,1.2
		c26.5,4.1,53,4.5,79.4-0.5c3.6-0.7,7.1-1.5,10.8-1.2c1.9-0.2,3.9,0.4,5.8-0.1c3.3-0.8,4.2-3.8,6.1-6c1.4-1.3,1.9-2.8,0.9-4.6
		c-0.7-1.4-1.3-2.8-0.8-4.4c0.6-1.2,1.5-1.9,2.8-2.2c1.5,0.4,3.2-0.1,4.5,1.2c-0.1,1.9-1.5,4.2,1.5,5.1c0,0.4,0.1,0.8,0.3,1.1
		c-0.5,2.8-2.4,5.4-1.4,8.4c0.2,0.8,0.4,1.6,0.7,2.4c-3.3,2.6-6.9,4.6-10.7,6.4c-2.1,0.9-4.9,1.7-5.1,4.8c0.3,0.6,0.2,1.1-0.2,1.6
		c-0.6,0.4-1.1,0.3-1.5-0.2c-0.7-0.5-1.4-0.9-2.2-1.4c-3.5,0.5-7,0.6-10.4,1.3c-8.3,1-16.5,1.2-24.7-0.7c-1-0.1-2-0.2-3-0.2
		c-0.9,0-1.9,0-2.8,0c-2.6,0-5.2,0.3-7.3,2.1c-4,0.7-7.8-1.2-11.8-0.8c-1-0.1-1.9-0.2-2.9-0.5c-2.3-0.8-4.7-1.2-7.1-0.4
		c-0.6,0.1-1.2,0.2-1.8,0.2c-1.2-0.1-2.4-0.5-3.6-0.8c-2.3-0.8-4.6-1.3-6.9,0.1c-2,0.4-4.1,0.8-6-0.4l0.1,0.1
		c-3.3-1.7-6.9-1.1-10.4-1.4c-5.2-1.9-10.7-3.2-15.7-5.7c-2.2-2.7-6.8,2.5-8.4-2.5c-0.4-2.2-0.7-4.3-1.1-6.5
		C92.2,127.3,93,122.6,93.8,118z"/>
	<path id="XMLID_704_" class="st77" d="M154.2,148.3c4.6-2,8.9,1.7,13.5,0.8c2-0.7,4.3-0.6,5.9-2.2c0.9-0.1,1.8-0.2,2.6-0.3
		c0.9,1.3,1.8,1,2.7,0.1c8.6,2.1,17.3,2,26.1,1.6c0.8,0.8,0.7,1.5,0,2.3c-12.7,1.9-25.4,3.8-38.4,1.8c-2-0.5-4,1.1-6,0l-0.5,0.1
		l-0.4-0.3c-1.6-1.3-4.4,0.2-5.6-2.2C153.8,149.4,153.9,148.9,154.2,148.3z"/>
	<path id="XMLID_703_" class="st78" d="M100.8,141c5.4,0,10.5,1.4,15,4.5c0.7,1.5-0.4,1.8-1.3,2.4c-5.7-0.5-11-2.7-16.4-4.3
		C99,142.7,99.9,141.9,100.8,141z"/>
	<path id="XMLID_702_" class="st79" d="M227.2,245.6c-0.4,1.8,1.3,2.4,2.1,3.6c-1,0.6-2.1,1.3-3.1,1.9c-0.6-0.1-1.3-0.1-2-0.2
		c-0.9,0-1.6-0.3-2.4-0.7c-1.6-0.7-3.4-0.6-4.8-1.9c-0.3-0.6-0.2-1.1,0.4-1.5c1.8-1.9,1.8-5.5,5.4-5.6c0.3,0.1,0.6,0.1,0.9,0.2
		C225.4,242.4,226.8,243.6,227.2,245.6z"/>
	<path id="XMLID_701_" class="st80" d="M173.5,267.4c-0.5,0.5-0.9,0.9-1.4,1.4c-1.4,0-2.7,0-4.1,0c-1.3-0.5-2.6-1.1-3.5,0.6
		c-0.4,1-0.8,2-1.6,2.8c-0.9,0.7-1.9,1.4-3.1,0.8c-0.7-2,4.4-7-2.9-5.7c-0.8-0.9-0.7-1.7,0.1-2.6c2.2-0.1,4.5-0.2,6.7-0.3
		c2.8-1,5.6-0.1,8.3,0.5C173,265.5,173.8,266.1,173.5,267.4z"/>
	<path id="XMLID_700_" class="st81" d="M225.3,231.6c1.4,0.5,2.4,1.4,3,2.8c1.5,1.4,2.5,2.9,2,5c-2.3,2.6-4.9,0.2-7.3,0.4
		C220,236.1,221.7,233.6,225.3,231.6z"/>
	<path id="XMLID_699_" class="st82" d="M222.7,201.4c0.1-0.5,0-0.9-0.2-1.3c-0.3-1.7,0.2-3.2,1.5-4.4c0.9-0.5,1.8-0.6,2.8-0.5
		c1.8,0.4,3.7,0.8,5.5,1.5c0.9,0.5,1.5,1.1,1.9,2c0.1,2-1.3,2.7-2.7,3.5c-0.6,0.2-1.2,0.3-1.8,0.4c-1.9-0.2-3.5,0.7-5.3,1.1
		c-0.6,0-1.2-0.2-1.8-0.6C222.2,202.5,222.3,202,222.7,201.4z"/>
	<path id="XMLID_698_" class="st83" d="M132.3,147.9c2.1-5.4,5.5-0.8,8.3-1.1c2.4,4.5-3.9,2.5-3.9,5.2c-2,0.3-4.1,0.8-5.9-0.8
		C131.5,150.1,133.1,149.6,132.3,147.9z"/>
	<path id="XMLID_697_" class="st84" d="M227,196.1c-0.9,0-1.7,0-2.6,0c-1.8-0.1-2.2-1.5-2.8-2.8c-1.3-1.6-1.7-3.3-1.1-5.3
		c1-1.3,2.4-1.3,3.8-0.8c2,1.1,3,2.9,3.7,5C228.2,193.6,228.2,195,227,196.1z"/>
	<path id="XMLID_696_" class="st85" d="M210.4,257.7c-1.6,1.2-3.2,2.5-5.4,2.4c-1.6,1.7-2.8,0.1-4.2-0.5c-0.4-0.6-0.4-1.2,0.2-1.7
		c1.5-1.5,3.2-2.5,5.3-2.9C208.3,254.9,210.5,254.6,210.4,257.7z"/>
	<path id="XMLID_695_" class="st86" d="M146.1,267.2c0.5-0.4,1.1-0.7,1.6-1.1c2-1.3,3.1,0,4.2,1.4c0.4,2.2-0.2,4.1-1.6,5.8
		c-1.7,1-3.3,0.8-4.8-0.5c-0.9-1.1-1.5-2.4-0.9-3.8c0.5-0.1,1-0.2,1.5-0.4c0.3-0.3,0.4-0.6,0.4-0.9
		C146.3,267.4,146.2,267.2,146.1,267.2z"/>
	<path id="XMLID_694_" class="st87" d="M214.7,257.9c-0.5,0-1,0-1.5,0c-0.5,0-0.9,0-1.4,0c1.2-2.9-3-2.1-2.9-4.2
		c1.6-4,4.2-2.2,6.8-1.3c0.7,0.4,1,1,0.9,1.7C216.8,255.7,217.7,257.8,214.7,257.9z"/>
	<path id="XMLID_693_" class="st88" d="M225.6,229.2c0,0.5-0.1,1-0.1,1.5c-3.6-1.7-3.8-5-3.7-8.3c0.2-0.5,0.6-0.9,1.2-1.1
		c0.6-0.1,1.1-0.1,1.7,0c0.5,0.2,1,0.5,1.4,0.9c0.3,0.5,0.6,1,0.7,1.5c0.2,0.8,0.2,1.7,0.2,2.5c0,0.6-0.1,1.1-0.3,1.6
		C226.3,228.4,226,228.8,225.6,229.2z"/>
	<path id="XMLID_692_" class="st89" d="M114.5,147.9c0.4-0.8,0.9-1.6,1.3-2.4c3.8,0.4,8.6-3.2,11.1,2.6c-0.3,0.1-0.7,0.2-1.1,0.2
		c-2.1,0.2-4.1,0.2-6.2,0C117.9,148.1,116.2,148,114.5,147.9z"/>
	<path id="XMLID_691_" class="st90" d="M154.2,148.3c0,0.3,0,0.7-0.1,1c0.1,0.9,0.6,1.8,0.1,2.7c-3.8,1.5-7.2-1.3-10.9-1.3
		c-0.8-0.8-0.8-1.7,0-2.5c0.4-0.2,0.8-0.3,1.2-0.3c2.4-0.5,4.7,0.6,7.1,0C152.4,148.1,153.3,148.2,154.2,148.3z"/>
	<path id="XMLID_690_" class="st91" d="M216,253.7c-0.1-0.5-0.2-0.9-0.3-1.4c-1.2-2.3-1.5-4.4,1.6-5.4c0.1,0.5,0.1,1,0.2,1.5
		c1.8,0.8,4.2,1.2,3.8,4c0,0.9,0,1.8,0.1,2.7c-1.4-0.5-2.9-0.9-4.3-1.4C216.8,254.4,216.4,254.4,216,253.7z"/>
	<path id="XMLID_689_" class="st92" d="M144.6,269c0.4,1.1,0.9,2.1,1.3,3.2c-2.1,2.2-4.2,2.7-6-0.3c-0.4-2.3,0.5-4.1,2-5.8
		c0.7-0.4,1.5-0.8,2.2-1.2c0.2,0.8,0.3,1.7,0.5,2.5c-0.3,0.3-0.4,0.6-0.3,0.9c0.1,0.2,0.3,0.3,0.4,0.3L144.6,269z"/>
	<path id="XMLID_688_" class="st93" d="M222.8,222.1c-0.3,0.2-0.7,0.3-1.1,0.3c-3-3.4-1.1-7.4-1.5-11.2c0.4-0.5,0.9-0.6,1.5-0.4
		c0.8,0.4,1.4,1,1.8,1.8c0.2,0.5,0.4,1.1,0.5,1.6c0.1,1.1,0,2.2-0.2,3.3c-0.2,1-0.4,2.1-0.4,3.1
		C223.4,221.2,223.2,221.7,222.8,222.1z"/>
	<path id="XMLID_687_" class="st91" d="M185.7,262.2c-2.2,1.1,0.9,4.7-2.5,5.3c-2.4,0.4-2.1-1.7-2.9-2.9
		C181.3,261.9,183.6,262.1,185.7,262.2z"/>
	<path id="XMLID_686_" class="st94" d="M218.8,174.2c-0.2-1.7-0.3-3.3,1.4-4.3c0.4-0.4,0.8-0.7,1.3-0.8c0.5-0.1,1.1,0,1.6,0.1
		c0.5,0.2,1,0.5,1.4,0.8c0.3,0.4,0.5,0.9,0.7,1.5c0.1,0.6,0,1.1-0.1,1.6c-0.2,0.5-0.5,1-0.9,1.4c-0.5,0.3-1,0.6-1.5,0.7
		c-0.8,0.2-1.7,0.2-2.5,0C219.7,175,219.2,174.6,218.8,174.2z"/>
	<path id="XMLID_685_" class="st95" d="M151.6,267.4c-1.3-0.5-2.6-0.9-3.8-1.4c2.8-2.7,6.1-1,9.2-1.4c0,0.9,0,1.7-0.1,2.6
		c-0.9,0.1-1.7,0.1-2.6,0.2C153.4,268.2,152.5,268.3,151.6,267.4z"/>
	<path id="XMLID_684_" class="st96" d="M220.1,182.7c-0.4-1.5,0.1-2.8,1.2-3.9c-0.2-0.6-0.3-1.2-0.2-1.9c0.4-0.5,0.9-0.8,1.6-1
		c1-0.2,1.9,0,2.8,0.4c0.5,0.4,0.8,1,1,1.6c0,0.6,0,1.3-0.3,1.9c-0.6,1.2-1.5,2-2.6,2.7c-0.5,0.3-1.1,0.5-1.7,0.6
		C221.2,183.2,220.7,183,220.1,182.7z"/>
	<path id="XMLID_683_" class="st97" d="M132.3,147.9c1.4,1.9,1.3,3.2-1.5,3.2c-1.9-0.3-3.8-0.5-4.1-3
		C128.6,147.1,130.4,146.7,132.3,147.9z"/>
	<path id="XMLID_682_" class="st98" d="M143.3,148.3c0,0.8,0,1.7,0,2.5c-1.9,2-4.6-0.1-6.6,1.2c-0.2-0.9-2.7-2,0.1-2.5
		c1.9-0.3,3.3-0.6,3.8-2.7C141.5,147.3,142.4,147.8,143.3,148.3z"/>
	<path id="XMLID_681_" class="st99" d="M221.5,193.3c0.9,0.9,1.9,1.9,2.8,2.8c-0.6,1.3-1.3,2.7-1.9,4
		C219.5,198.2,220.1,195.8,221.5,193.3z"/>
	<path id="XMLID_680_" class="st100" d="M221.2,211.2c-0.3,0-0.7,0-1,0c0-2.4,0.1-4.8,0.1-7.2c1.2-0.2,2.3,0.3,3.5,0.4
		c1.3,0.1,2.4,0.4,3.2,1.5C226.5,209.2,223.6,209.9,221.2,211.2z"/>
	<path id="XMLID_679_" class="st101" d="M216,159.1c1-2.5-5-5.1,0.1-7.5c0.9,0,1.5,0.4,2,1.2c0.2,0.5,0.4,1,0.5,1.5
		c0.1,0.5,0.2,1,0.3,1.6c0.2,0.8,0.4,1.6,0.3,2.4c-0.2,0.5-0.5,1-1,1.3C217.4,159.8,216.6,159.8,216,159.1z"/>
	<path id="XMLID_678_" class="st102" d="M137.7,264.8c1.3,0,2.4,0.4,2.9,1.8c0,1.9-0.3,3.7-1.5,5.3c-2.7,0.1-4-1.5-4.5-3.9
		C134.9,266.3,136.5,265.7,137.7,264.8z"/>
	<path id="XMLID_677_" class="st103" d="M220.1,182.7c0.4-0.2,0.8-0.2,1.2-0.1c0.8,0.4,1.6,0.5,2.3,1.1c0.9,0.9,1.4,1.8,1.4,3.1
		c-0.1,0.6-0.4,1.1-0.9,1.4c-1.2-0.1-2.4-0.1-3.7-0.2C218.3,186.3,221,184.4,220.1,182.7z"/>
	<path id="XMLID_676_" class="st104" d="M205,150.6c0-0.8,0-1.5,0-2.3c3.3,0.4,6.5-2.3,9.9-0.2C212.2,151.2,208,148.6,205,150.6z"/>
	<path id="XMLID_675_" class="st105" d="M137.7,264.8c0.2,2.1-0.5,3.2-2.8,3c-0.9,0.5-1.8,0.3-2.6-0.2c-0.3-1.4,0.3-2.4,1.6-3
		C135.3,263.6,136.5,264.2,137.7,264.8z"/>
	<path id="XMLID_674_" class="st106" d="M223,239.9c2.2-3.2,4.5,0.2,6.7,0c0.4-0.6,0.8-0.6,1.2,0c0,0.5,0,1.1,0,1.6c0,0-0.6,0-0.6,0
		l-0.6,0c-2.2,1.8-4.5,1.3-6.8,0.2c0,0-0.2-0.4-0.2-0.4C222.9,240.9,223,240.4,223,239.9z"/>
	<path id="XMLID_673_" class="st101" d="M172.6,266.2c-2.9-0.6-5.9-1.2-8.8-1.8c2.8-1.4,5.7-1,8.7-0.8
		C173,264.5,173.1,265.4,172.6,266.2z"/>
	<path id="XMLID_672_" class="st107" d="M172.6,266.2c-0.1-0.8-0.1-1.7-0.2-2.5c1.3,0,2.5,0,3.8,0.1c0,1.9-0.2,3.6-2.7,3.6
		C173.2,267,172.9,266.6,172.6,266.2z"/>
	<path id="XMLID_671_" class="st40" d="M209,253.6c1.5,1,4.6,1,2.9,4.2c-0.5,0-1-0.1-1.5-0.1c-1.4-0.9-2.7-1.8-4.1-2.7
		C206.8,253.9,207.9,253.8,209,253.6z"/>
	<path id="XMLID_670_" class="st108" d="M216,159.1c0.9,0,1.9-0.1,2.8-0.1c0.2,0.2,0.4,0.4,0.6,0.6c0.4,0.8,0.4,1.5,0.3,2.4
		c-0.1,0.2-0.2,0.5-0.3,0.7c-0.2,0.2-0.4,0.4-0.6,0.5C217.7,161.9,212.7,163.3,216,159.1z"/>
	<path id="XMLID_669_" class="st34" d="M195.4,264.4c-1.4-0.9-4.4-0.6-2.7-3.7c1.4-0.2,2.8-0.4,4.1-0.7c0.2,0.2,0.3,0.5,0.5,0.7
		C197.4,262.5,196.7,263.6,195.4,264.4z"/>
	<path id="XMLID_668_" class="st109" d="M154.2,152c-0.3-0.9-1.6-1.8-0.1-2.7c1.9,0.9,3.7,1.9,5.6,2.8C157.9,152,156,154,154.2,152z
		"/>
	<path id="XMLID_667_" class="st110" d="M201,258c0.1,0.3,0.2,0.5,0,0.8c0.8,1.1,0.8,2.2-0.1,3.2c0,0.5,0,0.9,0,1.4
		c-2.3,0.9-3.2-0.9-4.3-2.3c-0.1-0.3,0-0.6,0.2-0.9C197.8,258.6,199.5,258.6,201,258z"/>
	<path id="XMLID_666_" class="st111" d="M119.6,148.3c2.1-1.4,4.1-1.4,6.2,0C123.7,150.3,121.7,149.7,119.6,148.3z"/>
	<path id="XMLID_665_" class="st109" d="M160.7,152.4c2,0.4,4-2.7,6,0C164.7,154,162.7,153.2,160.7,152.4z"/>
	<path id="XMLID_664_" class="st112" d="M139.4,271.2c-0.8-1.8-0.1-3.3,1.2-4.6c0.4-0.2,0.8-0.4,1.2-0.5c0.3,1.9-0.1,3.6-1.2,5.2
		C140.2,271.9,139.8,271.9,139.4,271.2z"/>
	<path id="XMLID_663_" class="st113" d="M223.2,205.8c-1.6,0.5-2.1-1-2.9-1.8c0.8-0.9,1.6-1.7,2.4-2.6c0,0.6,0.1,1.1,0.1,1.7
		C223.7,203.9,223.7,204.8,223.2,205.8z"/>
	<path id="XMLID_662_" class="st114" d="M220.1,167.2c-0.4-1-0.9-1.9-1.3-2.9c0.5-0.4,1.1-0.6,1.7-0.8c1.4,0,2.5,0.4,2.8,1.9
		c-0.1,1-0.7,1.7-1.6,2.2C221,167.9,220.5,167.7,220.1,167.2z"/>
	<path id="XMLID_661_" class="st115" d="M217.5,153.7c-0.5-0.7-1-1.4-1.4-2.1c0.3-0.7,0.7-1.4,1-2.1c0.6,0,1.1,0,1.7,0
		c0.2,0.2,0.4,0.4,0.5,0.5c0.2,0.5,0.3,1,0.4,1.5c0,0.8-0.3,1.5-0.8,2.1C218.5,153.9,218,153.9,217.5,153.7z"/>
	<path id="XMLID_660_" class="st36" d="M220.1,167.2c0.5,0,0.9,0.1,1.4,0.1c0.4-0.4,0.8-0.6,1.3-0.6c0.5,0,1,0.1,1.4,0.5
		c0.3,0.4,0.4,0.9,0.3,1.4c-0.3,0.7-1,1.1-1.6,1.5c-0.5-0.1-1.1-0.1-1.6-0.2c-0.3-0.3-0.6-0.7-0.9-1.1
		C220.2,168.3,220.2,167.7,220.1,167.2z"/>
	<path id="XMLID_659_" class="st116" d="M218.8,174.2c0.5,0,0.9,0.1,1.4,0.1c0.4,0.4,0.6,0.9,0.7,1.5c-0.1,0.6-0.5,1-1,1.3
		C218.9,176.4,218.7,175.4,218.8,174.2z"/>
	<path id="XMLID_658_" class="st117" d="M219.9,177.2c0.1-0.5,0.1-1,0.2-1.6c1.3-1,1.5-0.1,1.6,0.9c-0.1,0.7-0.3,1.5-0.4,2.2
		C220.8,178.3,220.4,177.8,219.9,177.2z"/>
	<path id="XMLID_657_" class="st118" d="M220.3,168.8c0.3,0.4,0.6,0.7,0.9,1.1c-0.3,0-0.7,0-1,0.1
		C220.1,169.6,220.1,169.2,220.3,168.8z"/>
	<path id="XMLID_656_" class="st91" d="M220,164.4l-0.6,0.1c0,0-0.6-0.2-0.6-0.2c0-0.4,0-0.8-0.1-1.2c0,0,0,0.1,0,0.1
		c0.4-0.5,0.9-0.6,1.5-0.3C220.6,163.5,220.5,164,220,164.4z"/>
	<path id="XMLID_655_" class="st119" d="M144.7,268.6c-0.3-0.1-0.7-0.2-1-0.2c0.3-0.3,0.6-0.7,0.8-1
		C144.6,267.8,144.7,268.2,144.7,268.6z"/>
	<path id="XMLID_654_" class="st120" d="M146.1,267.2c0.3,0.4,0.7,0.7,1,1.1c-0.4,0.1-0.7,0.2-1.1,0.3
		C146.1,268.1,146.1,267.7,146.1,267.2z"/>
	<path id="XMLID_653_" class="st120" d="M52.8,268.9c7.5-19.9,14.5-39.2,30.6-54.4C84.4,225.1,61.7,265.1,52.8,268.9z"/>
	<path id="XMLID_652_" class="st121" d="M99.6,245.2c-2.6,7.8-6.3,15-10,22.2c-2.6,0-1.8-1.5-1.3-2.9c1.6-11.5,5.1-22.3,10-32.7
		C104.3,235.6,99.4,240.6,99.6,245.2z"/>
	<path id="XMLID_651_" class="st122" d="M99.6,245.2c-0.7-4.5,0.8-9.1-1.4-13.5c3.1-7.4,7-14.3,12.7-20.2
		C108.6,223.3,104.9,234.5,99.6,245.2z"/>
	<path id="XMLID_650_" class="st123" d="M40.3,331.7c-0.5,1.6,1,4.8-2.5,4.1c-1.6-0.3-4.6-0.8-4.1-3.4c0.4-2.1,2.1-4.3,4.5-4.5
		C41.2,327.5,39.8,330.2,40.3,331.7z"/>
	<path id="XMLID_649_" class="st124" d="M88.3,264.4c0.4,1,0.9,2,1.3,2.9c-0.5,1.3-1,2.7-1.9,5C86.4,268.8,86.8,266.6,88.3,264.4z"
		/>
	<path id="XMLID_648_" class="st120" d="M291.8,263.4c-4,9.6-7,19.9-17.7,24.7C276.8,277.6,283.1,269.6,291.8,263.4z"/>
	<path id="XMLID_647_" class="st125" d="M139.4,271.2c0.4,0.1,0.8,0.2,1.2,0.1c1.4,2.2,3.4,1.1,5.2,0.9c1.3,1.2,2.8,0.8,4.3,0.6
		c1.4-1,2.8-1,4.2,0c1.3,4.6-0.7,9-3.1,12.2c-8.5,11.3-16.4,23.2-27.2,32.5c-1.6,1.4-3.1,4-5.7,2.6c-2.2-1.2-1.2-3.7-1.2-5.7
		c0.2-14.7,5.7-27.9,11.3-41.1c1-2.3,6.2-1.5,3.8-5.7c0.9,0.1,1.7,0.2,2.6,0.2C135.4,270.3,136.8,271.5,139.4,271.2z"/>
	<path id="XMLID_646_" class="st126" d="M159.8,273c0.9-0.5,1.8-1,2.7-1.5c2,0,4.1-0.2,4.3,2.7c-6.5,12.2-9.7,25.6-14.6,38.4
		C151.8,298.9,154.8,285.8,159.8,273z"/>
	<path id="XMLID_645_" class="st120" d="M103,292.4c1.3-6.8,4.2-12.4,12.2-16C112.2,283.7,107.7,288.2,103,292.4z"/>
	<path id="XMLID_644_" class="st120" d="M208.2,277.1c2.8-0.7,3.8-0.1,3.5,1.3c-0.7,3.7-3,6.6-6.5,7.9c-1.3,0.5-3.1-1.8-2.8-3.2
		C203.4,279.5,206.2,277.7,208.2,277.1z"/>
	<path id="XMLID_643_" class="st127" d="M154.3,272.7c-1.4,0-2.8,0-4.2,0c-0.2-2,0.5-3.7,1.4-5.3c0.9,0,1.8,0,2.8,0.1
		C154.4,269.2,154.3,271,154.3,272.7z"/>
	<path id="XMLID_642_" class="st128" d="M163.9,268.8c-0.8-0.5-1.7-1.5-0.5-1.9c1.7-0.5,4-0.9,4.6,1.9c-0.9,0.4-1.8,0.8-2.8,1.2
		C164.6,269.8,164.1,269.4,163.9,268.8z"/>
	<path id="XMLID_641_" class="st129" d="M163.9,268.8c0.5,0.4,0.9,0.8,1.4,1.3c0.4,1.5,4.1,1.7,1.5,4.2c-0.5-2.3-3.2-1.3-4.3-2.7
		C162.9,270.6,163.4,269.7,163.9,268.8z"/>
	<path id="XMLID_640_" class="st130" d="M196.6,261c1.4,0.8,2.9,1.6,4.3,2.3c0,0.9-0.1,1.7-0.1,2.6c-1.8-0.5-3.6-1-5.4-1.4
		C195.8,263.3,196.2,262.1,196.6,261z"/>
	<path id="XMLID_639_" class="st66" d="M113.1,111c1.6,0.3,2.9-0.6,4.2-1.4c5.1,2.2,10.1,0.6,15.1-0.2c6,0.3,12,0.2,17.8-1.2
		c3.2-0.2,6.4,0.3,9.6,0.1c2.4-0.4,4.7-0.6,7.1-0.5c1.7,0.4,3.5,0.6,5.3,0.5c1.5,0,3,0.2,4.1-1.1c8.1-0.1,16.3-0.3,24.4-0.4
		c3.3-1.4,5.6,2.4,8.7,1.6c2.7,0.6,5.5,1,8.1,2c0.3,0.3,0.7,0.5,1.1,0.7c2.4,0.6,3.8,2.4,5.6,4l-0.1,0.2c1.6,1.5,2.5,3.3,2.1,5.5
		c-0.3,2,1,3.9,0.2,5.8c-3.3,0.7-2.8,3.2-2.9,5.6c-0.7,1.8-1.9,2.8-3.8,2.9c-2.5-0.2-5.1-0.4-7.5-1.5c-10-5.7-21.3-7.3-32.4-7.8
		c-23-1.2-46.2-1.9-67.9,8.4c-0.8,0.4-1.8,0.5-2.7,0.4c-2.8-1.5-5.7-2.6-8.6-3.8c-5.4-2.1-3.5-5.8-2.1-9.4c0.6-2.6,2.5-3.9,4.8-4.9
		c1.8-0.6,2.9-1.7,2.9-3.7C108.8,112.9,111.1,112.7,113.1,111z"/>
	<path id="XMLID_638_" class="st131" d="M209.3,109.6c-3.6,1.3-5.7-2-8.6-2.8c1.4-0.4,2.9-0.8,4.3-1.2c2.4,1.7,5.1,1.5,7.8,1.6
		C213.1,110.3,210.4,108.7,209.3,109.6z"/>
	<path id="XMLID_637_" class="st132" d="M209.3,109.6c0.3-2.1,2.7-1,3.5-2.3c2,0.5,4.2,0.7,4.8,3.2
		C214.7,111.5,211.9,111.2,209.3,109.6z"/>
	<path id="XMLID_636_" class="st133" d="M225.5,120.5c-1-1.6-1.6-3.3-1.4-5.2c1.7-0.7,2.8,0.6,4.1,1.3c0.8,0.7,2.1,1.1,1.6,2.7
		c-1,0.5-1.9,1-2.9,1.4C226.4,121.4,225.9,121.4,225.5,120.5z"/>
	<path id="XMLID_635_" class="st134" d="M224.3,115.1c-2.9,0.2-4.5-1.6-5.6-4C224,107.6,222.9,113.2,224.3,115.1z"/>
	<path id="XMLID_634_" class="st135" d="M229.9,119.2c-0.5-0.9-1.1-1.8-1.6-2.7c2.5-0.1,4.8,0.1,5.3,3.2
		C232.2,120.8,231,120.1,229.9,119.2z"/>
	<path id="XMLID_633_" class="st136" d="M233.8,198.9c-0.4-0.5-0.9-0.9-1.3-1.4c0-0.3,0-0.6,0-0.9c1.3-2.7,0.5-5.1-0.8-7.5
		c-0.2-0.9-0.2-1.7,0.1-2.6c0.9-1.4,1.8-2.7,1.7-4.5c0.1-2-0.3-3.9-1.1-5.7c-0.7-1.6-1.7-3-3.5-3.5c-0.6-0.2-1.1-0.4-1.6-0.7
		c-0.2-0.2-0.4-0.4-0.6-0.6c-0.2-0.6-0.1-1.2,0.2-1.7c0.6-0.4,1.1-0.3,1.5,0.2c4,0.6,7,0.2,5.4-5.2c-0.4-1.2,0-1.3,4.2-2.9
		c0.9,0.3,1.9,0.6,2.8,1c3.6-1.9,6.5,0.6,9.6,1.6c2.8,2.1,6.2,3.5,7.6,7.1c1.1,3.1,2.2,6.3,3.3,9.4c0.8,2.3-1.7,5.2,1.2,7.1
		c-0.1,0.3,0,0.7,0,1c0,0-0.1-0.2-0.1-0.2c-1.4,1.7-1,4.2-2.6,5.7c-3.8,7.1-7.3,14.3-12.7,20.4c-3.4,2.6-6.5,5.5-10.5,7.2l-0.5-0.3
		l-0.6,0c-1.4-0.6-1.7-1.9-1.9-3.2c1.3-3.9-1.7-7.7-0.6-11.6c2.3-1.2,1.5-3.1,1.1-4.9C233.8,201.1,234.7,199.9,233.8,198.9z"/>
	<path id="XMLID_632_" class="st137" d="M259.8,194.7c0.4-2.1-1-5.1,2.6-5.7c0.1,1.4,0.1,2.8,0.2,4.2
		C261.6,193.7,260.7,194.2,259.8,194.7z"/>
	<path id="XMLID_631_" class="st138" d="M227.1,149.7c1,0.5,1.2,1.5,1.1,2.5c-0.5,2,1.3,5.3-2.9,5.3c-0.4-0.3-0.8-0.7-1.1-1.2
		c-0.5-0.7-0.8-1.4-1-2.3c-0.3-1.9,0.1-3.4,2-4.2C225.9,149.8,226.5,149.8,227.1,149.7z"/>
	<path id="XMLID_630_" class="st139" d="M224.2,159c3.2,1.8,4.5,4.6,4.1,8.2c-0.6,0.8-1.5,0.9-2.4,0.7c-0.3-0.2-0.5-0.3-0.8-0.5
		c-0.3-0.5-0.6-1-0.9-1.6c-1-2-1.9-3.9-0.7-6.1C223.8,159.5,224,159.3,224.2,159z"/>
	<path id="XMLID_629_" class="st48" d="M224.2,157.7c0,0.4,0,0.9,0,1.3c0,0,0.1,0.5,0.1,0.5c-0.9,0.5-1.8,0.4-2.6-0.3
		c-0.8-1.8,0.3-2.1,1.8-2.1C223.7,157.4,224,157.5,224.2,157.7z"/>
	<path id="XMLID_628_" class="st68" d="M225.4,167.4c1-0.1,1.9-0.1,2.9-0.2c0,0.5,0,1,0,1.5c-0.4,0.4-0.9,0.6-1.5,0.6
		c-0.6,0.1-1.1-0.1-1.5-0.4C225.1,168.4,225.1,167.9,225.4,167.4z"/>
	<path id="XMLID_627_" class="st140" d="M227.1,168.9c0.4-0.1,0.8-0.1,1.2-0.1c0.1,0.4,0.1,0.9,0.1,1.3c-0.3,0.3-0.7,0.4-1.1,0.3
		c-0.5-0.3-0.6-0.6-0.5-0.9C226.9,169,227,168.9,227.1,168.9z"/>
	<path id="XMLID_626_" class="st141" d="M225.6,156.3c0,0.4-0.1,0.8-0.2,1.2c-0.4,0-0.8,0.1-1.2,0.2l0.2-0.3
		c-0.4-0.2-0.5-0.5-0.5-0.8c0-0.3,0.1-0.5,0.2-0.5C224.6,155.8,225.1,155.9,225.6,156.3z"/>
	<path id="XMLID_625_" class="st142" d="M160.7,109.5c-3.6,0.4-7.2,0.1-10.6-1.3c0.4-0.4,0.9-0.9,1.3-1.3c2.4,0.1,4.8,0.2,7.2,0.2
		C159.2,108.1,162.1,107,160.7,109.5z"/>
	<path id="XMLID_624_" class="st143" d="M176.3,107.2c0.8,4.7-2.8,1.7-4.3,2.4c-0.4-1.3-3.4,0.1-2.5-2.5
		C171.8,107.2,174,107.2,176.3,107.2z"/>
	<path id="XMLID_623_" class="st144" d="M160.7,109.5c-0.7-0.8-1.3-1.6-2-2.3c2.6,0,5.1,0.1,7.7,0.1c1,0.4,1.1,0.9,0.2,1.5
		C164.6,109.1,162.7,109.3,160.7,109.5z"/>
	<path id="XMLID_622_" class="st145" d="M166.6,108.8c-0.1-0.5-0.1-1-0.2-1.5c1.1,0,2.1-0.1,3.2-0.1c0.8,0.8,1.6,1.6,2.5,2.5
		C170.2,109.4,168.4,109.1,166.6,108.8z"/>
	<path id="XMLID_621_" class="st139" d="M225.3,149.9c-1.4,1.5-0.6,3.5-0.9,5.2c-0.6,0.6-1.4,0.9-2.3,1c-0.6,0-1.1-0.1-1.6-0.3
		c-0.2-0.2-0.4-0.3-0.7-0.5c-0.3-0.4-0.5-0.9-0.5-1.5c0.1-0.7,0.1-1.5,0.1-2.3c0-0.7,0-1.4-0.6-2c0,0,0-0.1,0-0.1
		c0-0.5,0.1-0.9,0.1-1.4C221,148.6,223.1,149.2,225.3,149.9z"/>
	<path id="XMLID_620_" class="st146" d="M258,171.6c-3.3-0.9-5-3.9-7.7-5.6c-1.8-1.4-3.4-2.9-1.3-5.3c0.3-0.2,0.7-0.3,1.1-0.3
		c1.5,1,3,1.9,4.4,2.9c1.9,1.6,2.9,4.1,5.3,5.3C260.8,170.5,260.3,171.6,258,171.6z"/>
	<path id="XMLID_619_" class="st147" d="M259.8,168.5c-3.5,0-4.9-2.1-5.3-5.3c2-0.5,3.2,2.4,5.4,1.2
		C258.4,165.8,259,167.1,259.8,168.5z"/>
	<path id="XMLID_618_" class="st148" d="M249,160.7c-0.4,2,0.4,3.6,1.3,5.3c-3.2-1-6.3-2.1-9.5-3.1
		C242.8,159.5,245.4,158.2,249,160.7z"/>
	<path id="XMLID_617_" class="st149" d="M159.8,63c0.1,0.9,0.2,1.8,0.2,2.7c0,0.4-0.2,0.8-0.4,1.2c-0.9-1.3-1.8-2.6-2.7-3.9
		c0.4-0.5,0.8-0.9,1.3-1.4C158.8,62.2,159.3,62.6,159.8,63z"/>
	<path id="XMLID_616_" class="st150" d="M232.3,223.7c0.1,0.4,0.1,0.8,0.1,1.3c-1,0.4-2,0.8-3.1,1.1c-0.9-0.3-1.5-0.9-1.8-1.8
		c-0.1-1,0.1-1.8,0.6-2.6C231,219.5,232,220.8,232.3,223.7z"/>
	<path id="XMLID_615_" class="st39" d="M230.9,239.9l-0.6,0.1c0,0-0.6,0-0.6,0c-0.5-1.8-1-3.7-1.4-5.5c0.9,0,1.7,0.1,2.6,0.1
		c1.3,1.3,1,2.8,0.3,4.2C231.1,239.2,231.1,239.5,230.9,239.9z"/>
	<path id="XMLID_614_" class="st151" d="M231.2,238.8c-0.1-1.4-0.2-2.8-0.3-4.2c0.5-0.5,1-1,1.5-1.5c0.5,0.9,0.9,1.9,1.4,2.8
		c-1.1,0.5-1.3,1.5-1.3,2.6C232.1,238.6,231.6,238.7,231.2,238.8z"/>
	<path id="XMLID_613_" class="st152" d="M225.6,227.8c0.1-0.7,0.2-1.4,0.2-2.1c0.4-0.2,0.9-0.3,1.4-0.3c0.2,0.1,0.4,0.2,0.7,0.3
		c0.2,0.1,0.4,0.3,0.6,0.4c0.2,1.4,1.2,3.2-1.6,2.9C226.5,228.6,226,228.2,225.6,227.8z"/>
	<path id="XMLID_612_" class="st153" d="M228.4,225.1c0.8-0.1,1,0.3,0.9,1c0,0-0.4,0-0.4,0s-0.4,0-0.4,0s0,0.2,0,0.2
		c-0.4-0.2-0.6-0.5-0.4-0.7C228.2,225.2,228.3,225.1,228.4,225.1z"/>
	<path id="XMLID_611_" class="st61" d="M225.6,227.8c0.4,0.4,0.9,0.8,1.3,1.2c-0.4,0.1-0.9,0.1-1.3,0.2
		C225.6,228.7,225.6,228.2,225.6,227.8z"/>
	<path id="XMLID_610_" class="st154" d="M200.9,261.9c0-1.1,0.1-2.1,0.1-3.2c1.3,0.5,2.7,0.9,4,1.4c0,1,0,2.1,0,3.1
		C203.6,262.8,202.2,262.4,200.9,261.9z"/>
	<path id="XMLID_609_" class="st155" d="M103.4,116.5c-1,1.7-1.8,3.6-4,4.2c-0.3,0-0.6,0.1-0.9,0.1c-0.6-0.6-1.2-1.1-1.8-1.7
		c-0.6-1.4,0.4-2.2,1.3-2.9c0.6-0.3,1.1-0.1,1.5,0.4C100.8,116,102.1,115.5,103.4,116.5z"/>
	<path id="XMLID_608_" class="st34" d="M99.5,116.6c-0.5,0.1-1,0.2-1.5,0.2c-0.3-0.4-0.4-0.7-0.3-1.1c0.1-0.3,0.3-0.5,0.4-0.5
		c0.4-0.2,0.8-0.5,1.3-0.7C99.4,115.2,99.4,115.9,99.5,116.6z"/>
	<path id="XMLID_607_" class="st156" d="M216,253.7c0.4,0.1,0.8,0.1,1.2,0c0.9,1.8,4,3.4,0.3,5.5c-1.1,0-2.3-0.1-2.8-1.3
		C216.4,256.9,216,255.2,216,253.7z"/>
	<path id="XMLID_606_" class="st157" d="M232.3,223.7c-1.1-1-1.9-3.1-4-1.5c-0.2-0.2-0.4-0.4-0.6-0.6c-0.4-0.8-0.5-1.6-0.4-2.5
		c0.1-0.6,0.3-1.1,0.6-1.6c0.4-0.5,0.8-0.9,1.3-1.2c0.3-0.1,0.6-0.2,0.8-0.4c0.6-0.1,1.2-0.1,1.8,0c1.2,0.3,2.1,1.1,2.9,2
		c0.3,1.3,0.5,2.7,0.8,4C234.5,222.5,233.4,223.1,232.3,223.7z"/>
	<path id="XMLID_605_" class="st158" d="M221.4,252.5c-1.3-1.3-2.5-2.7-3.8-4c1.9,0,4.1-0.8,5.5,1.3c0.5,0.8,0.4,1.7,0,2.5
		C222.5,252.3,222,252.4,221.4,252.5z"/>
	<path id="XMLID_604_" class="st159" d="M223.1,252.2c0-0.8,0-1.7,0-2.5c0.4,0.4,0.7,0.8,1.1,1.2
		C223.8,251.4,223.5,251.8,223.1,252.2z"/>
	<path id="XMLID_603_" class="st68" d="M223,241.7c2.3-0.1,4.5-0.1,6.8-0.2c-0.5,1.3-0.9,2.6-1.4,4c-0.4,0.1-0.8,0.1-1.2,0.2
		C225.4,244.8,223.9,243.5,223,241.7z"/>
	<path id="XMLID_602_" class="st160" d="M98,115.2c0,0.5-0.1,1.1-0.1,1.6c-0.4,0.8-0.9,1.5-1.3,2.3c-1,0.2-1.7-0.1-2.1-1
		c0.2-0.5,0.5-1,0.7-1.5c0.5-0.4,1-0.7,1.4-1.1C97.1,115.4,97.6,115.3,98,115.2z"/>
	<path id="XMLID_601_" class="st161" d="M108.9,133.1c30.4-12.4,61.5-12.4,93-5.5c4.1,0.9,8.5,1.6,11.3,5.4
		c-0.8,2.8,3.1,2.2,3.1,4.4c-28.3,5.1-56.7,7.4-85.5,3.5c-8.5-1.2-16.7-5.1-25.6-2.5c-2.5,0.3,3.2-2.6-0.8-1.8
		c-1.6,0.3-3-0.6-3.9-2.1c0-0.5,0.1-1,0.1-1.4C103.5,131,106.2,131.8,108.9,133.1z"/>
	<path id="XMLID_600_" class="st162" d="M225.5,120.5c0.5,0.1,1,0.1,1.4,0.2c0.5,1.4,1,2.7,1.4,4.1c-0.1,2,0,4.1-1.2,5.9
		c-1.7,2.8-2.3,7-7,6.6c-1-1-0.9-2.1,0-3.1c0.9-0.8,1.8-1.7,2.6-2.5c0.7-1.6,1.2-3.2,2.6-4.4C225.4,125,225.5,122.7,225.5,120.5z"/>
	<path id="XMLID_599_" class="st163" d="M220.2,134.2c0,1,0,2.1,0,3.1c-1.2,1-2.5,0.1-3.8,0c-1.5-1.1-4.9-0.9-3.1-4.4
		C215.4,134.1,218.2,132,220.2,134.2z"/>
	<path id="XMLID_598_" class="st164" d="M98.5,120.8c0.3,0.1,0.6,0.1,0.9-0.1c-0.7,3.3-3.2,7,1.5,9.5c0.5,0.7,0.4,1.4-0.2,2
		C94.8,130.2,94.3,127.4,98.5,120.8z"/>
	<path id="XMLID_597_" class="st143" d="M100.6,134.4c2.5,0.7,5,1.3,7.5,2c-0.9,0.6-1.9,1.3-2.8,1.9
		C103.2,137.7,99.4,139.1,100.6,134.4z"/>
	<path id="XMLID_596_" class="st165" d="M100.6,132.1c0.1-0.7,0.1-1.3,0.2-2c3.1-0.1,6,0.2,8.1,2.9c-2.7,0-5.5-0.1-8.2-0.1
		C100.4,132.7,100.4,132.4,100.6,132.1z"/>
	<path id="XMLID_595_" class="st166" d="M151.5,148c-2.3,2.8-4.7,1.2-7.1,0C146.8,146,149.2,146.2,151.5,148z"/>
	<path id="XMLID_594_" class="st167" d="M227.2,130.7c-0.1-2.1-1-4.3,1.2-5.9C229.9,127.1,230.5,129.3,227.2,130.7z"/>
	<path id="XMLID_593_" class="st168" d="M173.6,147c-0.8,4-3.8,1.8-5.9,2.2C168.7,145.7,171.6,147.6,173.6,147z"/>
	<path id="XMLID_592_" class="st169" d="M179,146.7c0,1.8-0.6,3.2-2.6,2.5c-1.8-0.6,0-1.7-0.1-2.6
		C177.2,146.7,178.1,146.7,179,146.7z"/>
	<path id="XMLID_591_" class="st170" d="M235.2,201.6c0.3,1.9,3.8,4.4-0.9,5.5c-1.4,0.8-2.6,0.4-3.9-0.2c-0.6-0.4-1.1-0.9-1.4-1.5
		c-0.4-1.4-0.5-2.8,1.1-3.6c0.3,0,0.7,0,1-0.1C232.4,201.6,233.7,200.1,235.2,201.6z"/>
	<path id="XMLID_590_" class="st171" d="M227,196.1c0-1.2,0-2.4,0-3.6c-0.9-1.3-0.1-1.9,1-2.3c1.5,0,2.8,0.6,3.9,1.5
		c1.8,1.8,1.8,3.8,0.8,6c0,0-0.2-0.2-0.2-0.2C230.6,197.3,228.4,198.1,227,196.1z"/>
	<path id="XMLID_589_" class="st172" d="M230.1,201.8c-0.1,1.3-0.2,2.6-0.3,3.9c-0.4,0.4-0.9,0.6-1.5,0.5c-0.7-0.5-1.4-1-2.2-1.1
		c-1.1-0.2-2.3-0.3-2-2C225.7,201.4,227.5,199.7,230.1,201.8z"/>
	<path id="XMLID_588_" class="st173" d="M235.2,201.6c-1.4-0.1-2.7,1.3-4.1,0.2c0.9-1,1.8-1.9,2.8-2.9
		C235.9,199,235.2,200.4,235.2,201.6z"/>
	<path id="XMLID_587_" class="st174" d="M224,203.1c0.4,1.7,1.8,1.3,3,1.5c0.2,0.2,0.4,0.4,0.5,0.6c-0.2,0.2-0.4,0.4-0.5,0.6
		c-1.3,0-2.5,0-3.8,0c-0.1-0.9-0.2-1.8-0.3-2.7C223.2,203,223.6,203,224,203.1z"/>
	<path id="XMLID_586_" class="st175" d="M228.4,190.5c-0.5,0.7-1,1.3-1.5,2c-1-1.4-1.9-2.9-2.9-4.3c0.1-0.6,0.2-1.3,0.2-1.9
		c0.4-1,1.1-1.7,2.2-1.9c1.1,0,2,0.3,2.6,1.3C229.8,187.4,229.8,189,228.4,190.5z"/>
	<path id="XMLID_585_" class="st171" d="M228.4,225.1c0,0.4,0,0.7,0,1.1c-0.7-0.1-1.4-0.1-2.1-0.2c0-1-0.1-1.9-0.8-2.7
		c0.1-0.4,0.2-0.8,0-1.2c0,0,0.4-0.5,0.4-0.5c0.4-0.2,0.8-0.3,1.3-0.3c0.5,0.1,0.8,0.3,1.1,0.7l-0.1,0.1
		C228.4,223.2,228.4,224.1,228.4,225.1z"/>
	<path id="XMLID_584_" class="st140" d="M225.6,223.4c1.7,0.5,1,1.7,0.8,2.7c0,0-0.5-0.4-0.5-0.4
		C225.8,224.9,225.7,224.1,225.6,223.4z"/>
	<path id="XMLID_583_" class="st61" d="M225.6,222.2c-0.5-0.1-1-0.1-1.5-0.2c-0.2-0.5-0.1-1,0.3-1.4c0.3-0.1,0.5-0.1,0.8-0.2
		c0.2,0.1,0.5,0.2,0.7,0.3c0.3,0.5,0.4,1,0.3,1.5L225.6,222.2z"/>
	<path id="XMLID_582_" class="st73" d="M224.2,220.8c0,0.4,0,0.8-0.1,1.2c0,0-0.7,0.1-0.7,0.1s-0.7-0.1-0.7-0.1c0-0.3,0-0.7,0-1
		c0,0,0.3-0.6,0.3-0.6c0,0,0.7-0.1,0.7-0.1C223.7,220.4,224.2,220.8,224.2,220.8z"/>
	<path id="XMLID_581_" class="st176" d="M228.2,205.7c0.5,0,1.1,0,1.6,0c0.4,0.1,0.8,0.2,1.1,0.4c2.8,3.5,0.3,7,0,10.4
		c-0.4,0.1-0.8,0.1-1.2,0.2c-2.1,0.1-4.1-0.2-5.5-1.9c-0.5-0.7-0.7-1.6-1.4-2.1c-0.5-0.5-1-0.9-1.5-1.4c0-3.9,3.9-3.5,5.8-5.4
		c0,0,0-0.1,0-0.1C227.4,205.2,227.8,205.2,228.2,205.7z"/>
	<path id="XMLID_580_" class="st17" d="M224.2,214c1.6,1.4,4.2,0.7,5.5,2.7c0,0,0,0,0,0c-0.4,0.3-0.8,0.6-1.4,0.7
		c-0.9,0.6-1.6,1.5-2.7,1.6c-0.5,0.1-1.1,0.1-1.6,0c-0.5-0.2-1-0.5-1.3-0.9c0.1-1.4,0.2-2.8,0.4-4.2
		C223.5,213.5,223.9,213.5,224.2,214z"/>
	<path id="XMLID_579_" class="st177" d="M222.7,218.1c0.4,0,0.8,0,1.2,0.1c0.3,0.1,0.6,0.2,0.9,0.3c0,0.3-0.1,0.6-0.1,0.9
		c-0.4,0.5-1,0.8-1.6,1c0,0-0.3,0.6-0.3,0.6C221.9,220.1,220.9,219.1,222.7,218.1z"/>
	<path id="XMLID_578_" class="st178" d="M224.2,214c-0.4,0-0.8,0-1.2,0c-0.1-0.4-0.2-0.9-0.3-1.3C223.2,213.1,223.7,213.5,224.2,214
		z"/>
	<path id="XMLID_577_" class="st179" d="M225.6,176.9c-1,0-1.9,0-2.9,0c-0.5-1-0.8-2,0.4-2.8c0.4,0.1,0.8,0.1,1.2,0
		c0.2,0.1,0.5,0.2,0.7,0.2c0.4,0.3,0.8,0.7,1,1.1C226.1,176,225.9,176.5,225.6,176.9z"/>
	<path id="XMLID_576_" class="st180" d="M223.1,174.2c-0.1,0.9-0.3,1.8-0.4,2.8c-0.3-0.1-0.6-0.2-1-0.3c-0.5-0.3-1.1-0.6-1.6-0.9
		c0-0.4,0-0.9,0.1-1.3C221.2,174.3,222.2,174.2,223.1,174.2z"/>
	<path id="XMLID_575_" class="st181" d="M224.4,172.9c0-0.5-0.1-1.1-0.1-1.6c0.4-0.4,0.8-0.6,1.4-0.7c0.5,0.1,1,0.4,1.3,0.8l0.1-0.1
		c0.3,0.3,0.4,0.6,0.4,1c0,0.4-0.1,0.5-0.2,0.5c-0.4,0.4-0.9,0.7-1.5,0.8C225.3,173.5,224.8,173.3,224.4,172.9z"/>
	<path id="XMLID_574_" class="st99" d="M225.5,171.3l-0.6,0c0,0-0.6-0.1-0.6-0.1c0-0.4,0.1-0.7,0.2-1.1c0.3-0.1,0.6-0.2,0.9-0.4
		c0.4,0.3,0.6,0.6,0.5,0.9C225.7,171.2,225.6,171.3,225.5,171.3z"/>
	<path id="XMLID_573_" class="st153" d="M222.8,170c0.5-0.5,1-1,1.5-1.5c0.1,0.2,0.3,0.4,0.4,0.5c0.1,0.5-0.1,0.9-0.6,1.1
		c0,0,0.1,0,0.1,0C223.9,170.2,223.4,170.1,222.8,170z"/>
	<path id="XMLID_572_" class="st182" d="M224.4,172.9c0.4-0.1,0.8-0.1,1.3-0.1c0.2,1.2,0,2-1.5,1.3c0,0,0.1,0,0.1,0
		C224.3,173.7,224.3,173.3,224.4,172.9z"/>
	<path id="XMLID_571_" class="st183" d="M225.8,185c-0.5,0.4-1,0.8-1.5,1.2c-0.5-0.8-0.9-1.6-1.4-2.4c0,0,0-0.6,0-0.6
		c0,0,0.4-0.4,0.4-0.4s-0.6,0-0.6-0.1c0,0,0.1-0.6,0.1-0.6c0.5-1.3,1.4-2.2,2.8-2.6c0.8-0.8,1.7-0.7,2.7-0.2
		C229.5,182.2,227.8,183.7,225.8,185z"/>
	<path id="XMLID_570_" class="st184" d="M228.5,179.6c-0.9,0-1.9,0-2.8-0.1c0-0.4-0.1-0.9-0.1-1.3c0.4-0.4,0.9-0.8,1.5-1
		c0.9-0.1,1.8,0,2.6,0.5c0.4,0.5,0.5,1,0.4,1.6C229.6,179.9,229.1,180,228.5,179.6z"/>
	<path id="XMLID_569_" class="st185" d="M226.9,178.1c-0.4,0.1-0.8,0.2-1.3,0.2c0-0.5,0-0.9,0-1.4c0.1-0.4,0.2-0.9,0.1-1.3
		c0.4-0.4,0.9-0.5,1.5-0.2c0.4,0.4,0.6,0.9,0.6,1.5C227.6,177.4,227.3,177.8,226.9,178.1z"/>
	<path id="XMLID_568_" class="st153" d="M223,183.8c-0.5-0.4-1.1-0.9-1.6-1.3c0.5-0.1,1.1-0.2,1.6-0.3c0,0-0.1,0.4-0.1,0.4
		c0.3,0.4,0.3,0.8,0,1.2L223,183.8z"/>
	<path id="XMLID_567_" class="st186" d="M218.8,158c-0.5-0.6-0.9-1.1-1.4-1.7c0.4-0.4,0.6-0.8,0.9-1.3c0.2-0.2,0.4-0.3,0.6-0.5
		c0.6-0.1,1,0.1,1.3,0.6l-0.1-0.1c0.5,0.3,0.8,0.8,0.9,1.4c0,0.6-0.2,1.1-0.5,1.6C219.9,158.3,219.3,158.3,218.8,158z"/>
	<path id="XMLID_566_" class="st35" d="M218.8,158c0.4-0.2,0.8-0.3,1.3-0.2c0.3,0.5,0.3,0.9,0,1.3c-0.5,0.3-0.9,0.3-1.3-0.1
		c0,0,0,0,0,0C218.8,158.6,218.8,158.3,218.8,158z"/>
	<path id="XMLID_565_" class="st187" d="M217.5,153.7c0.3,0,0.7,0,1,0c0.3,0.2,0.6,0.4,0.9,0.6c-0.2,0.3-0.4,0.5-0.7,0.8l0.1-0.1
		c-0.5,0.4-0.9,0.5-1.4,0.1C217.3,154.5,217.4,154.1,217.5,153.7z"/>
	<path id="XMLID_564_" class="st188" d="M217.4,155c0.5,0,0.9-0.1,1.4-0.1c-0.5,0.5-0.9,0.9-1.4,1.4
		C217.4,155.8,217.4,155.4,217.4,155z"/>
	<path id="XMLID_563_" class="st174" d="M220.1,163.2c-0.5,0-0.9,0-1.4,0c0.1-0.4,0.2-0.8,0.2-1.2c0.4-0.9,0.7-1.8,1.8-2.2
		c0.7,0.1,1.2,0.5,1.4,1.1C222.1,162.4,222.2,163.8,220.1,163.2z"/>
	<path id="XMLID_562_" class="st189" d="M220.1,160.5c-0.4,0.5-0.8,1.1-1.2,1.6c0-1-0.1-2.1-0.1-3.1c0.5,0,0.9,0.1,1.4,0.1
		c0.2,0.2,0.4,0.5,0.6,0.7C220.5,160,220.3,160.3,220.1,160.5z"/>
	<path id="XMLID_561_" class="st190" d="M220.1,163.2c0.5-0.9,0.9-1.8,1.4-2.8c-0.2-0.2-0.4-0.4-0.6-0.6c0.2-0.2,0.3-0.5,0.5-0.7
		c1,0.1,1.9,0.3,2.9,0.4c-0.4,2.4,0.3,4.5,1.3,6.6c-0.3,0.2-0.6,0.5-0.7,0.9c0,0-0.5,0.4-0.5,0.4c-0.5,0-1-0.1-1.6-0.1
		c-0.4-0.3-0.5-0.6-0.4-0.8c0.1-0.3,0.2-0.4,0.3-0.4c-0.5-1.4-1.7-1.5-2.9-1.6C220,164,220,163.6,220.1,163.2z"/>
	<path id="XMLID_560_" class="st182" d="M222.8,166c0,0.4,0,0.9,0,1.3c-0.5,0-0.9,0-1.4,0C221.5,166.4,222,166,222.8,166z"/>
	<path id="XMLID_559_" class="st48" d="M220.1,150.9c-0.1,0.9-0.3,1.8-0.4,2.7c-0.3,0-0.5-0.1-0.8-0.1c0,0-0.4,0.2-0.4,0.2
		c0.1-1,0.2-1.9,0.2-2.9C219.2,150.4,219.7,150.4,220.1,150.9z"/>
	<path id="XMLID_558_" class="st99" d="M220.1,150.9c-0.5,0-0.9-0.1-1.4-0.1c0.1-0.4,0.1-0.9,0.1-1.3
		C219.6,149.6,220.1,150.1,220.1,150.9z"/>
	<path id="XMLID_557_" class="st120" d="M225.4,167.4c0.2,0.4,0.1,0.8,0,1.2c-0.4,0.6-0.8,0.5-1.1-0.1c0,0,0.1,0,0.1,0
		c-0.1-0.4-0.1-0.8,0-1.1c0,0-0.2,0-0.2,0c0.5-0.5,0.9-0.5,1.3,0L225.4,167.4z"/>
	<path id="XMLID_556_" class="st191" d="M225.4,127.2c0.3,2.1-0.5,3.7-2.6,4.4c-1.5-2.1-0.4-4.1,0.4-6.1
		C223.9,126.1,224.7,126.7,225.4,127.2z"/>
	<path id="XMLID_555_" class="st192" d="M230.9,216.5c0.3-2.1-1.8-2.3-2.7-3.5c-0.6-0.8-0.8-1.5,0.2-2.2c2.7-2,2.7-2,2.5-4.8
		c1.1,0.3,2.3,0.7,3.4,1c0,3.6,2.6,7.1,0.5,10.8C233.5,217.4,232.2,217,230.9,216.5z"/>
	<path id="XMLID_554_" class="st193" d="M228.5,179.6c0.3,0.2,0.7,0.2,1.1,0.2c2.8-1.2,3.7,1.3,5.2,2.7c0.3,2,0.8,4.1-2.4,4.1
		c-1.5,0.2-2.9-0.2-4-1.3c-0.9-0.1-1.8-0.2-2.7-0.3C226.7,183.2,227.6,181.4,228.5,179.6z"/>
	<path id="XMLID_553_" class="st194" d="M234.8,182.5c-2.4,0.4-3.7-1.4-5.2-2.7c0-0.5,0.1-1,0.1-1.5c-0.8-1-0.7-1.9,0-2.9
		c1.3-1.1,2.6-0.9,3.9,0.1C234.9,177.7,235.6,180,234.8,182.5z"/>
	<path id="XMLID_552_" class="st195" d="M228.4,185.3c1.4,0.1,3.2-0.7,4,1.3c0,0.8,0,1.7,0,2.5c0.9,1.6,1.1,2.8-1.4,2.8
		c-1.1-0.1-2.3,0-2.7-1.4C228.4,188.8,228.4,187,228.4,185.3z"/>
	<path id="XMLID_551_" class="st184" d="M231.1,191.9c0.5-0.9,0.9-1.9,1.4-2.8c3.9,2.8,4.3,5.6,0.2,8.6
		C232.2,195.7,231.6,193.8,231.1,191.9z"/>
	<path id="XMLID_550_" class="st196" d="M233.6,175.5c-1.4,0.1-2.7,0.2-4.1,0.3c-0.2-0.2-0.3-0.3-0.5-0.5c-0.3-0.4-0.5-0.8-0.7-1.2
		c-0.2-0.4-0.4-0.9-0.4-1.4c0-0.5,0.1-0.9,0.5-1.3C232.2,170.1,232.7,173,233.6,175.5z"/>
	<path id="XMLID_549_" class="st50" d="M224.3,168.5c0.4,0.1,0.7,0.1,1.1,0.1c0.6,0.1,1.1,0.1,1.7,0.2c0.1,0.5,0.1,1,0.2,1.5
		c-0.1,0.4-0.2,0.7-0.3,1.1c-0.5,0-1,0-1.5-0.1c0.1-0.9-0.4-1.1-1.2-1.2C224.3,169.6,224.3,169.1,224.3,168.5z"/>
	<path id="XMLID_548_" class="st117" d="M228.3,171.4c0,0.5,0,0.9,0,1.4c0.4,0.3,0.5,0.7,0.4,1.1c-0.1,0.4-0.2,0.6-0.3,0.6
		c-0.6,0.3-1.2,0.2-1.8-0.2c-0.4-0.6-0.3-1.2,0.3-1.7c-0.1-0.5,0-0.9,0.2-1.3C227.5,171.1,227.9,171.2,228.3,171.4z"/>
	<path id="XMLID_547_" class="st197" d="M221.4,155.3c1-0.1,2-0.1,3-0.2c0.4,0.4,0.8,0.8,1.2,1.2c-0.4,0-0.8,0.1-1.3,0.2
		c-0.8,0.6-1.7,0.5-2.7,0.3c-0.4-0.3-0.5-0.6-0.5-1C221.2,155.4,221.3,155.3,221.4,155.3z"/>
	<path id="XMLID_546_" class="st91" d="M225.5,167.5l-0.7-0.1c0,0-0.7,0.1-0.7,0.1c0.4-0.4,0.9-0.9,1.3-1.3
		C225.5,166.5,225.5,167,225.5,167.5z"/>
	<path id="XMLID_545_" class="st198" d="M221.4,156.2c1,0.1,1.9,0.2,2.9,0.3c0,0.3,0,0.6,0,0.9c-1.2,0.3-2.4,0.3-3,1.7
		c0,0,0.1-0.1,0.1-0.1c-0.5,0.5-0.9,0.5-1.4,0c0,0,0,0,0,0c0-0.4,0-0.9,0-1.3c0.1-0.5,0.1-1.1,0.2-1.6
		C220.7,155.8,221.1,155.8,221.4,156.2z"/>
	<path id="XMLID_544_" class="st23" d="M218.9,153.5c0.3,0.1,0.5,0.1,0.8,0.1c0.1,0.5,0.3,0.9,0.4,1.4c-0.5,0-1,0-1.4,0
		C218.8,154.5,218.8,154,218.9,153.5z"/>
	<path id="XMLID_543_" class="st35" d="M221.4,156.2l-0.6,0c0,0-0.6-0.1-0.6-0.1c-0.1-0.4-0.3-0.8-0.3-1.2c0.5,0.1,0.9,0.2,1.4,0.3
		C221.4,155.6,221.5,155.9,221.4,156.2z"/>
	<path id="XMLID_542_" class="st91" d="M228.4,222c-0.5,0.1-1.1,0.1-1.6,0.2c-0.4-0.4-0.7-0.8-0.9-1.3l-0.6-0.2
		c-0.2-0.7,0-1.2,0.5-1.7c0.9-0.4,1.8-0.6,2.5,0.4C228.4,220.4,228.4,221.2,228.4,222z"/>
	<path id="XMLID_541_" class="st199" d="M228.3,219.5c-0.9-0.1-1.9-0.1-2.8-0.2c-0.1-0.2-0.3-0.5-0.5-0.7c0.2-0.2,0.4-0.4,0.7-0.5
		c0.8-0.5,1.6-0.9,2.4-1.4c0.4,0.2,0.6,0.4,0.6,0.7c-0.1,0.3-0.2,0.5-0.3,0.5C228.4,218.5,228.3,219,228.3,219.5z"/>
	<path id="XMLID_540_" class="st182" d="M228.4,217.9c-0.2-0.4-0.3-0.8-0.3-1.2c0.5,0,1,0,1.6-0.1
		C229.3,217.1,228.8,217.5,228.4,217.9z"/>
	<path id="XMLID_539_" class="st185" d="M228.2,205.7l-0.6,0.1c0,0-0.6,0-0.6,0c0-0.4,0-0.8,0-1.2
		C227.9,204.4,228.3,204.8,228.2,205.7z"/>
	<path id="XMLID_538_" class="st23" d="M225.9,220.9c0.3,0.4,0.6,0.8,0.9,1.3c0,0-0.6,0.1-0.6,0.1
		C226.1,221.8,226,221.4,225.9,220.9z"/>
	<path id="XMLID_537_" class="st73" d="M225.5,219.4c-0.1,0.5-0.1,0.9-0.2,1.4c-0.4,0-0.7,0-1.1,0c0,0,0,0,0,0
		c-0.3-0.3-0.4-0.6-0.3-0.9c0.1-0.3,0.2-0.5,0.3-0.5l-0.1,0.1C224.6,219,225.1,218.9,225.5,219.4L225.5,219.4z"/>
	<path id="XMLID_536_" class="st68" d="M224.3,219.4c0,0.5,0,0.9,0,1.4c-0.4,0-0.8-0.1-1.2-0.4C223.5,220.1,223.9,219.8,224.3,219.4
		z"/>
	<path id="XMLID_535_" class="st200" d="M225.6,219.4c-0.5,0-0.9,0-1.4,0.1c-0.1-0.4-0.2-0.9-0.4-1.3c0.6,0,1.3,0,1.9-0.1
		C225.6,218.5,225.5,219,225.6,219.4z"/>
	<path id="XMLID_534_" class="st201" d="M226.9,172.6c0.1,0.6,0.1,1.1,0.2,1.7c0.3,0.5,0.2,1-0.3,1.3c-0.4,0-0.8-0.1-1.1-0.1
		c-0.5-0.5-1-1-1.5-1.5c1,0.1,1.3-0.5,1.5-1.3C226.1,172.7,226.5,172.7,226.9,172.6z"/>
	<path id="XMLID_533_" class="st91" d="M222.9,183.9c0-0.4,0-0.8,0-1.2c0.3,0.2,0.6,0.4,0.9,0.6
		C223.5,183.4,223.2,183.6,222.9,183.9z"/>
	<path id="XMLID_532_" class="st202" d="M229.5,175.7c0.1,0.8,0.1,1.7,0.2,2.5c-1-0.1-1.9-0.1-2.9-0.2c0.1-0.4,0.1-0.9,0.2-1.3
		c0.7-0.7,1.1-2.2,2.6-1.1L229.5,175.7z"/>
	<path id="XMLID_531_" class="st203" d="M229.7,175.6c-0.9,0.4-1.7,0.8-2.6,1.1c-0.1-0.4-0.2-0.8-0.3-1.2c0.2-0.4,0.3-0.8,0.3-1.3
		c0.4-0.2,0.9-0.3,1.3-0.4c0.4-0.3,0.8-0.3,1.2,0C229.6,174.5,229.7,175.1,229.7,175.6z"/>
	<path id="XMLID_530_" class="st91" d="M220.1,159c0.5,0,0.9,0,1.4,0c0,0.5,0,0.9,0,1.4c0,0-0.7,0-0.7,0s-0.7,0-0.7,0.1
		C220.1,160,220.1,159.5,220.1,159z"/>
	<path id="XMLID_529_" class="st140" d="M229.6,174l-0.6,0.1c0,0-0.6-0.2-0.6-0.2c0-0.4,0-0.8-0.1-1.2
		C228.8,173.2,229.2,173.6,229.6,174z"/>
</g>
</svg>
